<?xml version="1.0" standalone="no"?>
<!DOCTYPE svg PUBLIC "-//W3C//DTD SVG 20010904//EN"
 "http://www.w3.org/TR/2001/REC-SVG-20010904/DTD/svg10.dtd">
<svg version="1.0" xmlns="http://www.w3.org/2000/svg"
 width="3000.000000pt" height="3000.000000pt" viewBox="0 0 3000.000000 3000.000000"
 preserveAspectRatio="xMidYMid meet">
<metadata>
Created by potrace 1.16, written by Peter Selinger 2001-2019
</metadata>
<g transform="translate(0.000000,3000.000000) scale(0.100000,-0.100000)"
fill="#000000" stroke="none">
<path d="M0 15000 l0 -15000 6302 0 6303 0 107 107 108 108 75 3 c71 4 77 6
105 38 16 19 30 45 30 58 0 13 18 46 40 72 22 27 45 66 51 87 13 48 143 192
182 202 36 9 81 47 108 93 12 20 30 44 39 52 9 8 52 58 96 110 43 52 120 145
172 207 l94 112 36 -24 c60 -41 192 -100 262 -119 113 -30 372 -68 429 -63 48
3 59 9 85 39 17 19 38 37 47 40 55 20 72 216 31 339 -13 36 -36 86 -51 111
-16 25 -32 54 -35 65 -4 12 -29 44 -57 72 l-51 50 38 53 c22 29 45 60 53 70 8
9 20 31 27 50 6 18 24 61 39 96 34 81 56 199 54 285 l-2 68 41 37 c23 20 64
57 92 80 27 24 67 69 88 100 37 57 37 57 37 164 0 102 -1 109 -25 133 -24 24
-32 25 -179 32 l-153 6 -23 52 c-45 103 -195 346 -247 399 -15 17 -28 34 -28
39 0 4 -13 27 -29 51 -26 38 -30 52 -36 156 -4 63 -9 124 -12 135 -4 13 17 -1
60 -40 159 -146 215 -196 252 -224 22 -16 62 -52 90 -80 27 -28 54 -51 59 -51
5 0 42 -30 81 -67 113 -106 254 -227 275 -237 11 -5 20 -13 20 -17 0 -6 71
-69 320 -285 14 -12 48 -41 75 -64 28 -24 54 -49 58 -56 4 -8 20 -20 35 -28
15 -8 54 -40 87 -73 33 -32 78 -70 100 -85 22 -15 58 -46 80 -69 22 -23 56
-52 76 -64 19 -13 55 -42 79 -65 24 -23 65 -59 91 -79 124 -95 345 -277 357
-293 7 -10 18 -18 24 -18 10 0 79 -55 148 -117 19 -18 40 -33 46 -33 7 0 29
-17 51 -37 56 -55 130 -113 142 -113 5 0 16 -8 23 -18 7 -10 79 -71 160 -136
81 -65 149 -124 152 -132 3 -8 11 -14 17 -14 14 0 114 -83 147 -122 13 -16 29
-28 36 -28 7 0 46 -34 87 -75 40 -41 78 -75 83 -75 5 0 41 -31 80 -70 39 -38
155 -153 258 -255 104 -101 188 -189 188 -193 0 -5 30 -38 68 -74 81 -80 220
-229 241 -261 9 -13 38 -45 65 -70 l50 -47 277 2 278 3 -42 46 c-64 70 -137
156 -200 236 -32 40 -71 80 -87 88 -16 8 -36 28 -44 43 -8 15 -23 36 -35 46
-12 11 -21 23 -21 29 0 5 -22 29 -50 54 -27 25 -50 51 -50 59 0 7 -24 31 -54
53 -30 22 -71 61 -92 88 -22 26 -86 94 -144 152 -58 59 -127 131 -153 163 -26
31 -63 63 -81 72 -18 8 -56 42 -85 76 -29 33 -58 60 -65 60 -7 0 -47 35 -88
78 -84 86 -192 184 -211 192 -21 9 -68 43 -96 69 -99 95 -300 261 -316 261
-10 0 -107 81 -122 102 -7 9 -34 29 -60 45 -27 17 -66 47 -89 69 -22 21 -60
52 -85 69 -24 16 -51 37 -59 46 -8 9 -70 60 -138 113 -67 53 -134 108 -150
121 -15 14 -57 48 -94 76 -38 28 -68 55 -68 59 0 5 -24 24 -53 43 -29 19 -70
54 -92 76 -22 23 -58 54 -80 69 -39 26 -86 69 -242 218 -41 39 -86 77 -101 85
-32 16 -178 145 -275 241 -37 38 -71 68 -76 68 -4 0 -18 11 -31 25 -13 14 -28
25 -33 25 -10 0 -84 64 -211 182 -40 38 -77 68 -82 68 -5 0 -32 23 -59 50 -28
28 -77 72 -110 97 -33 26 -68 56 -77 68 -9 12 -41 41 -71 64 -31 23 -77 63
-104 89 -26 26 -64 61 -83 77 -81 69 -323 296 -436 409 -66 67 -160 157 -207
200 -48 44 -87 85 -87 91 0 7 -42 53 -94 103 l-95 90 15 48 c20 64 13 125 -20
174 -32 49 -72 61 -178 53 l-79 -6 -177 174 c-97 96 -284 277 -415 403 -130
126 -237 234 -237 240 0 6 -79 89 -175 185 -96 96 -175 180 -175 187 0 7 -15
25 -33 41 -18 15 -53 52 -78 80 -24 29 -48 53 -52 53 -5 0 -30 24 -55 52 -26
29 -73 79 -104 110 -32 32 -58 61 -58 65 0 5 -34 43 -75 85 -41 42 -75 81 -75
85 0 4 -32 42 -70 83 -39 41 -70 79 -70 85 0 6 -16 27 -36 46 -19 18 -54 59
-77 89 -53 69 -289 350 -345 410 -23 25 -42 48 -42 53 0 10 -174 187 -183 187
-14 0 -67 44 -67 56 0 13 -156 164 -170 164 -4 0 -10 4 -12 8 -9 24 -252 227
-337 283 -31 20 -69 48 -86 63 -16 14 -50 36 -75 48 -25 12 -58 32 -73 45 -15
12 -56 39 -90 58 -70 40 -71 41 -147 80 -30 16 -59 34 -65 41 -15 18 -143 80
-205 99 -30 9 -85 35 -122 56 -110 64 -156 72 -422 66 -262 -5 -279 -8 -437
-88 -53 -27 -102 -49 -109 -49 -7 0 -53 -25 -102 -56 -100 -61 -113 -60 -103
8 5 33 70 163 100 198 7 8 27 40 43 71 17 31 59 93 94 137 35 45 83 109 108
144 25 35 59 79 76 98 17 19 33 42 36 51 3 8 33 49 66 90 33 41 68 88 78 105
32 52 223 302 265 345 21 22 39 45 39 50 0 18 400 399 431 411 10 4 19 11 19
16 0 4 37 38 83 75 157 127 240 192 256 202 60 38 107 71 116 80 14 16 113 75
125 75 16 0 129 59 180 94 26 18 62 38 81 45 19 8 66 28 104 46 151 71 183 77
297 55 168 -33 216 -45 265 -66 29 -13 61 -24 71 -24 9 0 87 -34 172 -76 85
-42 175 -86 200 -98 25 -12 88 -45 140 -73 52 -28 109 -54 125 -58 17 -3 87
-38 156 -76 69 -38 129 -69 133 -69 13 0 196 -111 196 -119 0 -10 46 -31 68
-31 9 0 46 -20 82 -45 36 -24 84 -54 108 -67 23 -12 42 -26 42 -30 0 -4 8 -8
18 -9 9 0 44 -18 77 -39 102 -66 176 -110 186 -110 5 0 15 -5 22 -10 26 -23
155 -101 207 -126 30 -15 75 -41 100 -59 55 -39 118 -77 216 -130 86 -46 340
-203 399 -245 22 -16 46 -29 54 -30 8 0 32 -14 55 -31 52 -39 176 -119 184
-119 4 0 32 -17 63 -38 146 -97 170 -112 175 -112 3 0 51 -30 106 -68 56 -37
123 -79 150 -95 27 -15 59 -38 71 -50 30 -32 113 -87 130 -87 8 0 22 -9 32
-20 10 -11 23 -20 29 -20 13 0 111 -64 140 -92 11 -10 25 -18 32 -18 7 0 20
-8 29 -17 42 -41 163 -124 197 -133 20 -6 38 -14 40 -18 3 -10 147 -110 187
-131 14 -8 61 -41 104 -73 43 -33 96 -69 116 -81 35 -20 159 -109 185 -132 6
-5 23 -16 38 -24 16 -8 63 -42 105 -76 43 -34 87 -65 98 -69 11 -3 38 -22 60
-42 22 -19 65 -52 95 -72 30 -21 93 -66 139 -102 45 -36 94 -71 106 -78 13 -7
54 -40 90 -75 37 -34 79 -68 93 -76 15 -8 60 -39 100 -70 40 -31 85 -64 100
-73 15 -10 49 -39 77 -66 64 -62 211 -182 223 -182 5 0 16 -7 23 -17 8 -9 38
-33 66 -55 29 -21 72 -58 95 -82 24 -24 51 -48 61 -53 10 -5 52 -41 93 -79 41
-38 110 -101 152 -140 249 -228 742 -720 742 -740 0 -11 82 -94 93 -94 13 0
174 -168 197 -205 10 -17 76 -87 147 -157 70 -70 171 -174 223 -232 52 -58
128 -140 167 -183 40 -42 73 -83 73 -90 0 -7 9 -18 21 -25 11 -7 70 -76 131
-153 62 -77 118 -147 125 -155 8 -8 27 -35 43 -61 16 -25 79 -95 139 -157 61
-61 128 -136 150 -166 22 -30 52 -67 66 -82 26 -27 37 -56 33 -84 -4 -28 14
-243 23 -274 5 -17 16 -188 24 -381 9 -192 20 -375 25 -405 5 -30 12 -131 15
-225 3 -93 10 -222 16 -285 14 -160 37 -642 32 -657 -3 -6 0 -60 6 -120 6 -59
13 -225 16 -368 3 -143 10 -345 15 -450 5 -104 12 -407 16 -673 l7 -482 210 0
210 0 -7 437 c-10 686 -37 1429 -76 2163 -11 201 -25 457 -30 570 -17 340 -30
530 -55 840 -13 162 -26 324 -28 360 -2 36 -18 184 -36 330 -18 146 -36 315
-41 375 -12 152 -54 391 -109 620 -10 44 -24 105 -31 135 -6 30 -16 78 -22
105 -6 28 -37 129 -69 225 -32 96 -65 213 -73 259 -9 53 -24 97 -40 121 -22
33 -33 40 -88 52 -56 13 -66 13 -91 -1 -82 -46 -107 -145 -83 -332 8 -68 22
-151 31 -184 48 -178 111 -528 125 -695 5 -52 12 -123 16 -158 7 -62 7 -62
-19 -62 -21 0 -41 19 -104 98 -119 149 -303 362 -313 362 -5 0 -16 12 -24 28
-8 15 -49 63 -91 107 -42 44 -111 117 -153 163 -42 46 -108 116 -147 156 -38
40 -135 141 -215 226 -200 211 -756 764 -890 885 -61 55 -135 123 -163 150
-29 28 -70 64 -92 80 -21 17 -66 56 -99 88 -33 31 -64 57 -69 57 -4 0 -18 10
-30 23 -12 13 -83 72 -157 132 -74 60 -142 116 -150 125 -8 9 -33 28 -55 42
-22 14 -58 42 -80 63 -22 20 -62 52 -90 70 -27 18 -68 49 -90 69 -22 20 -58
49 -80 64 -74 50 -200 147 -208 159 -4 7 -13 13 -19 13 -12 0 -105 68 -148
107 -14 13 -39 30 -56 38 -17 8 -56 34 -85 58 -30 24 -92 70 -139 102 -47 32
-110 78 -141 102 -30 24 -59 43 -64 43 -4 0 -49 31 -99 68 -50 38 -103 75
-117 83 -40 21 -177 117 -184 129 -3 6 -21 16 -38 24 -18 7 -66 39 -107 70
-41 30 -90 63 -109 72 -19 9 -40 21 -45 26 -30 25 -167 118 -197 132 -19 9
-66 40 -106 70 -40 29 -89 61 -110 71 -21 10 -40 21 -43 24 -9 12 -181 123
-229 148 -25 14 -55 33 -66 43 -11 9 -53 37 -92 60 -40 24 -73 50 -73 58 0 9
6 12 18 7 61 -24 652 -95 907 -110 205 -11 201 -10 239 -68 19 -29 44 -74 56
-102 12 -27 25 -52 29 -55 4 -3 22 -32 41 -65 18 -33 44 -73 57 -88 13 -16 23
-35 23 -44 0 -8 15 -41 33 -72 18 -31 53 -103 78 -160 54 -126 87 -162 164
-181 47 -11 65 -11 108 0 63 15 96 50 130 135 34 83 87 247 87 269 0 10 14 47
30 83 16 35 30 67 30 69 0 3 19 39 43 82 23 42 44 83 47 92 13 40 117 180 140
189 14 5 66 14 115 21 50 6 178 34 285 62 107 27 222 56 255 63 33 7 139 41
235 75 96 34 191 65 210 69 37 9 191 67 275 106 28 12 73 30 100 39 66 23 404
184 528 252 53 30 100 54 103 54 7 0 148 83 154 91 11 13 90 59 103 59 7 0 23
9 34 20 18 16 122 88 182 125 59 37 113 75 159 112 29 24 58 43 65 43 7 0 26
13 43 28 16 16 92 75 169 132 77 57 144 109 148 116 4 8 22 20 40 29 18 8 66
44 106 80 41 36 79 65 86 65 6 0 29 17 51 38 50 49 129 112 139 112 4 0 44 36
87 80 44 44 84 80 88 80 18 0 112 -89 353 -332 136 -138 247 -256 247 -264 0
-8 4 -14 9 -14 5 0 83 -80 172 -177 196 -214 285 -308 362 -386 31 -32 57 -61
57 -65 0 -4 34 -42 75 -84 41 -42 75 -80 75 -85 0 -4 32 -42 71 -83 38 -41 73
-82 77 -91 4 -9 38 -50 75 -91 38 -41 74 -84 80 -95 7 -12 39 -52 72 -91 33
-38 92 -109 130 -158 39 -49 74 -91 78 -93 5 -2 12 -13 17 -25 5 -11 40 -61
79 -110 39 -48 71 -93 71 -100 0 -6 23 -38 50 -71 49 -58 100 -164 100 -208 0
-12 30 -107 66 -212 37 -104 72 -215 79 -245 7 -30 29 -104 48 -165 65 -203
87 -277 98 -339 6 -33 26 -124 45 -201 62 -265 121 -596 214 -1205 75 -495
143 -1246 180 -1995 20 -411 32 -1955 25 -3245 -4 -707 -10 -1345 -13 -1418
l-7 -132 3343 0 3342 0 0 15000 0 15000 -15000 0 -15000 0 0 -15000z m18619
11742 c-6 -18 -15 -32 -20 -32 -5 0 -9 -4 -9 -10 0 -19 17 -10 30 18 11 22 14
24 17 10 3 -10 9 -18 15 -18 6 0 9 3 5 6 -3 3 6 17 20 30 28 26 39 25 29 -1
-3 -9 -10 -14 -15 -10 -5 3 -12 1 -16 -5 -3 -5 -1 -10 6 -10 7 0 4 -7 -7 -15
-10 -8 -14 -15 -7 -15 6 0 19 10 28 23 16 22 16 22 30 3 8 -11 15 -15 15 -9 0
7 -5 15 -11 18 -15 10 -6 28 15 31 11 1 16 -2 13 -10 -4 -9 2 -11 20 -8 17 3
29 -1 35 -11 4 -9 15 -14 23 -11 9 4 15 0 15 -9 0 -9 5 -19 12 -23 7 -5 8 -3
3 6 -6 10 -4 12 8 7 9 -3 18 -1 21 6 3 9 7 8 15 -3 8 -11 6 -17 -7 -22 -11 -5
-7 -7 13 -6 17 1 39 -3 51 -9 14 -8 150 -12 435 -12 227 0 487 0 577 0 l163
-1 -3 -317 -3 -318 -587 -3 -588 -2 0 -145 0 -144 -32 6 c-18 3 -49 12 -68 20
-80 34 -373 133 -392 133 -11 0 -51 10 -89 22 l-69 23 0 42 0 43 -148 0 c-156
0 -238 13 -412 63 -87 26 -311 80 -575 141 -82 18 -224 52 -315 75 -91 22
-177 43 -193 46 l-27 5 19 38 c29 57 51 152 51 222 l0 61 794 -2 c437 -1 799
1 804 5 6 3 58 7 116 7 58 0 106 4 106 9 0 4 7 10 14 13 9 4 13 1 10 -7 -3 -8
5 -12 28 -10 46 2 48 3 48 15 0 8 -4 8 -12 2 -7 -6 -20 -10 -30 -10 -18 0 -13
23 10 46 8 8 12 27 10 43 -4 24 -3 27 9 15 10 -10 11 -20 2 -45z m-15121 -409
l2 -323 -330 0 -330 0 0 325 0 325 328 -2 327 -3 3 -322z m3062 2 l0 -325
-325 0 -325 0 0 325 0 325 325 0 325 0 0 -325z m3160 108 l0 -218 -33 -20
c-17 -11 -45 -27 -60 -35 -15 -7 -56 -36 -90 -64 -126 -102 -108 -96 -298 -96
l-169 0 0 325 0 325 325 0 325 0 0 -217z m12600 167 c3 -25 4 -170 2 -322 l-3
-278 -328 0 c-180 0 -330 3 -333 6 -7 6 -484 5 -805 -2 l-233 -6 0 321 0 321
523 3 c287 1 668 2 847 2 l325 0 5 -45z m1068 41 c488 -1 621 -4 616 -14 -5
-9 -4 -9 7 1 20 18 115 16 123 -4 3 -8 11 -12 17 -8 8 4 7 9 -2 15 -10 6 -8 8
6 7 12 -1 21 -9 21 -19 0 -9 -6 -15 -13 -12 -7 3 -16 -2 -19 -11 -3 -9 -10
-13 -15 -10 -5 3 -6 -2 -3 -11 4 -9 9 -13 12 -11 3 3 11 -2 18 -12 12 -16 13
-16 19 1 4 9 11 17 16 17 6 0 5 -9 -1 -20 -6 -11 -17 -20 -25 -20 -9 0 -12 -6
-9 -15 5 -12 9 -12 30 2 14 9 27 13 30 10 3 -3 -4 -8 -15 -12 -12 -4 -18 -12
-14 -21 4 -12 8 -12 19 3 7 10 14 13 14 7 0 -5 -7 -19 -15 -30 -8 -10 -15 -14
-15 -9 0 6 -5 3 -11 -5 -8 -11 -9 -8 -4 15 4 16 3 27 -1 23 -3 -4 -15 -3 -24
2 -13 7 -20 6 -24 -6 -3 -8 -2 -12 4 -9 6 3 10 2 10 -3 0 -6 -7 -12 -15 -16
-8 -3 -15 -1 -15 3 0 5 -9 7 -19 4 -12 -3 -17 -11 -14 -19 3 -8 8 -12 12 -10
3 2 20 -7 36 -21 28 -24 28 -25 3 -9 -15 9 -35 15 -45 15 -17 -1 -17 -2 -1 -6
12 -3 16 -12 14 -26 -1 -12 -6 -21 -9 -19 -4 1 -11 2 -17 2 -5 0 -10 10 -10
21 0 18 -2 19 -15 9 -8 -7 -15 -9 -15 -4 0 5 -5 2 -11 -6 -9 -13 -10 -12 -5 3
3 11 2 16 -4 12 -15 -9 -12 -37 3 -32 12 4 67 -19 67 -28 0 -2 -11 0 -25 5
-16 6 -25 6 -25 0 0 -14 -16 -12 -32 3 -17 15 -42 21 -33 7 3 -5 1 -10 -5 -10
-7 0 -23 -9 -37 -19 -13 -11 -30 -18 -38 -15 -8 3 -22 1 -31 -4 -14 -8 -9 -10
23 -8 22 1 48 10 57 19 21 21 30 22 23 3 -4 -10 -1 -13 7 -10 8 3 17 0 22 -7
4 -8 3 -10 -4 -5 -13 8 -17 -26 -5 -38 14 -14 10 -33 -6 -32 -23 2 -31 17 -20
38 11 21 1 23 -24 4 -15 -12 -16 -14 -2 -20 24 -9 18 -25 -7 -20 -13 2 -39 6
-58 9 -32 4 -33 4 -10 -6 l25 -10 -22 -19 c-13 -10 -23 -21 -23 -25 0 -4 6 -2
13 4 8 6 18 7 22 3 5 -4 5 -2 2 4 -4 7 -1 14 7 17 10 4 12 -1 9 -16 -4 -22 -4
-22 11 -3 9 11 16 15 16 9 0 -16 -28 -36 -40 -28 -5 3 -10 -1 -10 -9 0 -8 9
-16 20 -18 18 -3 30 -18 15 -18 -3 0 -17 0 -31 0 -18 0 -24 4 -21 14 3 7 -3
20 -14 29 -17 15 -28 9 -12 -7 4 -3 8 -15 10 -26 2 -15 -3 -20 -22 -20 -14 0
-25 -4 -25 -9 0 -5 10 -7 23 -4 21 4 22 4 3 -11 -19 -16 -19 -16 2 -16 12 0
22 6 22 14 0 8 7 17 16 20 11 4 10 -1 -6 -24 -14 -19 -26 -27 -37 -23 -13 5
-15 1 -11 -20 6 -31 -8 -37 -17 -7 -3 11 -11 20 -16 20 -6 0 -7 5 -3 12 4 7 3
8 -5 4 -6 -4 -9 -11 -6 -16 3 -5 0 -12 -6 -16 -8 -4 -9 3 -4 25 7 32 1 37 -24
22 -8 -5 -10 -14 -5 -22 4 -8 9 -21 9 -31 1 -13 -2 -15 -17 -7 -10 5 -18 12
-18 15 0 3 5 2 12 -2 7 -4 8 -3 4 4 -10 17 -29 15 -23 -2 3 -7 0 -19 -6 -25
-9 -9 -8 -11 4 -6 10 4 20 2 24 -4 11 -19 -76 -13 -97 6 -18 16 -18 16 -12 0
4 -13 1 -17 -15 -17 -12 0 -21 3 -21 8 0 4 -10 13 -22 21 -23 14 -23 14 -4 -7
l18 -21 -363 -1 c-200 0 -435 -2 -521 -4 l-158 -3 0 131 c0 72 -3 211 -7 308
-3 97 -3 184 0 192 5 12 29 14 139 11 73 -2 413 -4 756 -4z m1780 -318 l2
-323 -325 0 -325 0 0 325 0 325 323 -2 322 -3 3 -322z m-20403 308 c-3 -5 -1
-12 5 -16 6 -3 13 0 15 7 7 19 86 23 96 6 7 -10 9 -10 9 0 0 6 7 12 16 12 9 0
12 -5 8 -12 -6 -10 -5 -10 7 -1 12 10 105 13 373 13 l357 0 -2 -258 c-1 -141
-5 -266 -10 -277 -7 -19 -8 -19 -8 -1 -2 33 -14 8 -17 -32 -1 -20 3 -40 8 -43
5 -3 2 -9 -7 -12 -9 -4 -13 -3 -10 3 3 6 2 10 -3 10 -11 0 -12 33 0 41 4 3 1
14 -8 25 -8 10 -13 14 -10 7 4 -6 2 -14 -3 -17 -5 -4 -8 -17 -7 -30 4 -33 -24
-29 -69 12 -20 17 -45 32 -55 32 -17 0 -35 -25 -31 -43 1 -5 -3 -6 -9 -2 -6 3
-8 10 -6 14 3 4 -1 8 -9 8 -8 0 -14 -3 -13 -6 2 -22 -4 -31 -14 -25 -10 6 -9
3 0 -8 12 -15 10 -16 -18 -13 -18 3 -38 12 -46 22 -7 10 -14 14 -14 9 0 -5 -7
-3 -15 4 -8 7 -23 9 -32 6 -15 -6 -16 -5 -5 5 15 16 16 29 1 29 -5 0 -7 -4 -4
-10 7 -12 3 -12 -19 -4 -9 3 -16 15 -16 25 0 10 -4 20 -10 20 -5 1 -16 2 -22
3 -7 1 -12 7 -11 14 2 6 -3 9 -10 6 -24 -9 -15 -30 12 -29 16 0 27 -6 27 -15
1 -8 2 -20 3 -27 0 -7 8 -10 16 -7 18 7 21 -21 3 -32 -7 -4 -8 -3 -4 4 4 7 3
12 -3 12 -5 0 -16 3 -25 6 -10 4 -16 1 -16 -8 0 -8 -12 -20 -26 -27 -22 -9
-30 -8 -54 9 -21 15 -30 17 -33 8 -4 -8 -6 -7 -6 3 -1 9 -8 20 -17 23 -8 3
-12 11 -8 17 4 8 3 9 -4 5 -7 -4 -12 -15 -13 -24 0 -13 -2 -13 -6 -3 -4 10 -9
8 -19 -10 -7 -13 -13 -19 -14 -12 0 8 -6 8 -24 0 -20 -10 -22 -15 -13 -27 11
-13 10 -13 -6 -1 -12 9 -17 23 -14 38 6 31 -7 29 -33 -4 -12 -16 -19 -23 -16
-16 4 7 -6 14 -24 18 -16 4 -30 13 -30 21 0 8 -4 14 -10 14 -5 0 -10 7 -10 16
0 15 -3 15 -26 -1 -15 -9 -24 -12 -20 -7 3 6 3 12 -1 15 -5 2 -2 2 5 0 9 -2
11 3 7 18 -6 16 -4 20 6 14 8 -5 11 -5 7 -1 -3 4 -8 6 -11 4 -2 -1 -10 2 -18
8 -21 17 -49 25 -49 14 0 -5 11 -12 25 -16 28 -7 26 -16 -6 -21 -12 -2 -18 1
-14 7 3 5 -1 10 -9 10 -9 0 -13 6 -10 14 3 7 -2 16 -10 19 -11 4 -13 0 -10
-20 10 -54 7 -62 -12 -35 -8 12 -21 20 -27 16 -7 -3 -3 2 7 10 19 16 19 16 -1
16 -27 0 -41 20 -16 21 15 0 14 2 -5 11 -17 8 -22 19 -20 37 2 15 9 25 16 23
8 -1 11 2 7 8 -3 5 -13 10 -21 10 -8 0 -14 5 -14 11 0 5 -6 7 -12 3 -10 -5
-10 -4 -1 6 8 9 9 19 3 30 -7 14 -5 19 13 25 12 4 27 6 32 5 6 -1 5 4 -1 10
-9 9 -18 9 -35 -1 -22 -11 -23 -11 -10 4 7 10 10 17 6 17 -4 0 -2 7 5 15 7 8
17 12 24 8 6 -3 3 3 -6 14 -23 25 -23 33 2 33 11 0 20 5 20 11 0 5 -5 7 -12 3
-7 -4 -8 -3 -4 4 9 15 37 16 34 1 -2 -6 4 -14 12 -16 12 -3 12 -2 2 5 -10 7
-10 11 2 22 9 7 13 17 10 22 -4 5 4 8 16 6 14 -2 25 3 27 12 3 9 1 11 -4 5
-13 -16 -55 -14 -48 2 3 8 5 20 5 26 0 7 5 4 11 -6 8 -14 14 -16 25 -6 7 6 11
15 8 20 -3 5 2 12 10 15 9 3 14 9 12 13 -3 4 5 8 17 8 11 1 25 9 29 18 5 8 11
15 14 15 3 0 3 -4 -1 -9z m14199 -2589 c0 -95 -5 -177 -10 -182 -5 -5 -29 -12
-53 -16 l-44 -7 7 44 c3 24 9 111 13 192 l6 148 41 -3 41 -3 -1 -173z m-15474
-742 l0 -320 -319 0 -319 0 -4 29 c-2 17 -1 28 4 25 4 -3 8 2 8 11 0 9 -5 13
-10 10 -6 -4 -8 3 -6 17 3 13 5 26 5 30 1 4 9 5 19 1 13 -4 12 -2 -4 10 -20
15 -21 25 -22 261 l-1 246 324 0 325 0 0 -320z m3061 213 c1 -60 2 -205 3
-323 l1 -215 -322 -3 -323 -2 0 325 0 325 320 0 320 0 1 -107z m15757 -215
l-3 -323 -317 -3 -318 -2 -1 57 c-1 70 -1 467 0 541 l1 52 320 0 320 0 -2
-322z m2862 2 l0 -320 -325 0 -325 0 0 320 0 320 325 0 325 0 0 -320z m3124
313 c4 -4 15 -8 24 -8 9 0 17 -7 16 -16 -1 -9 5 -16 12 -16 9 0 10 5 4 17 -9
18 -4 30 12 30 5 0 6 -4 3 -10 -3 -5 -1 -10 5 -10 6 0 9 -4 5 -9 -3 -6 6 -7
22 -4 16 3 34 6 41 6 6 0 12 4 12 8 0 8 51 1 60 -8 3 -3 -5 -4 -17 -1 -19 5
-22 2 -20 -22 2 -23 5 -26 19 -19 10 5 29 7 44 5 15 -3 23 -2 19 2 -3 4 -12 7
-18 7 -17 0 -17 43 -1 49 8 3 15 1 15 -4 5 -40 17 -52 39 -40 16 9 18 7 15
-10 -5 -25 3 -26 21 -2 13 15 13 14 5 -8 -4 -14 -6 -30 -4 -37 3 -8 -6 -10
-29 -8 -27 3 -30 2 -15 -6 15 -9 16 -13 5 -27 -11 -13 -9 -13 13 2 26 16 27
16 31 -8 3 -16 1 -23 -8 -19 -6 2 -15 0 -19 -6 -3 -7 3 -11 15 -11 12 0 18 -4
15 -10 -3 -5 1 -10 9 -10 8 0 18 5 22 12 4 7 3 8 -4 4 -7 -4 -12 -1 -12 9 0 9
5 13 10 10 6 -3 13 1 16 9 3 9 10 13 15 10 5 -3 9 2 9 10 0 13 3 13 28 -1 39
-22 39 -50 -1 -63 l-32 -10 32 5 32 4 3 -214 3 -215 -323 0 -322 0 0 320 1
320 83 0 c45 0 86 -3 90 -7z m-12260 -1219 c9 -24 52 -337 75 -549 44 -402 73
-556 146 -779 64 -195 162 -374 263 -478 31 -32 60 -64 64 -72 4 -8 37 -37 72
-65 35 -28 79 -65 98 -83 18 -17 49 -37 68 -45 19 -8 44 -23 55 -32 28 -24
192 -121 205 -121 6 0 45 -17 88 -39 42 -21 95 -44 117 -51 22 -7 45 -16 50
-20 15 -11 77 -30 131 -40 27 -4 117 -22 199 -38 279 -56 678 -86 925 -72 237
14 372 34 619 91 25 6 67 14 95 20 56 10 233 63 281 84 17 7 54 20 82 30 29 9
55 21 58 26 4 5 17 9 30 9 13 0 56 18 97 40 40 23 96 52 125 65 28 13 54 29
58 34 3 6 13 11 20 11 16 0 111 55 134 77 26 26 93 55 100 44 7 -10 20 -71 50
-221 6 -30 24 -104 41 -165 64 -232 100 -380 100 -404 0 -14 7 -51 15 -81 38
-138 135 -576 135 -607 0 -15 20 -126 44 -248 71 -353 83 -423 116 -700 7 -49
20 -157 31 -239 22 -172 41 -345 66 -606 22 -232 26 -1219 6 -1385 -7 -55 -20
-165 -28 -245 -9 -80 -30 -221 -47 -315 -17 -93 -34 -199 -39 -235 -7 -61 -51
-236 -114 -460 -15 -52 -31 -111 -36 -130 -10 -43 -67 -198 -109 -300 -17 -41
-39 -95 -47 -120 -21 -62 -182 -387 -208 -420 -14 -18 -85 -140 -85 -146 0 -9
-92 -147 -112 -168 -11 -11 -26 -35 -34 -52 -7 -17 -45 -68 -83 -114 -39 -46
-71 -89 -71 -96 0 -7 -6 -17 -14 -21 -7 -4 -60 -62 -118 -128 -57 -66 -122
-133 -143 -149 -21 -17 -71 -63 -109 -104 -69 -73 -200 -182 -255 -213 -26
-14 -58 -37 -173 -123 -26 -20 -52 -36 -57 -36 -5 0 -16 -6 -23 -13 -23 -23
-178 -137 -186 -137 -4 0 -39 -21 -77 -46 -39 -26 -130 -78 -204 -116 -73 -38
-140 -75 -147 -82 -7 -7 -39 -23 -71 -35 -63 -24 -134 -54 -198 -82 -133 -58
-210 -89 -220 -89 -6 0 -43 -16 -82 -35 -39 -19 -74 -35 -76 -35 -3 0 -39 -16
-80 -35 -42 -19 -88 -37 -104 -40 -25 -6 -161 -62 -205 -85 -34 -19 -176 -67
-243 -84 -119 -30 -278 -67 -330 -76 -27 -5 -94 -18 -147 -29 -53 -11 -130
-22 -170 -26 -40 -3 -127 -12 -193 -20 -264 -30 -330 -36 -585 -45 -274 -11
-695 -1 -900 20 -58 6 -166 17 -240 25 -74 8 -169 17 -210 20 -41 3 -124 15
-185 26 -60 11 -135 24 -165 29 -160 27 -582 122 -695 157 -133 40 -267 80
-330 98 -33 9 -107 35 -165 57 -58 21 -132 49 -165 60 -142 49 -433 179 -580
259 -55 30 -118 63 -140 73 -37 18 -113 64 -125 76 -14 14 -87 60 -97 60 -5 0
-43 28 -84 63 -41 35 -83 69 -95 77 -49 34 -250 231 -331 324 -49 55 -100 113
-115 127 -16 15 -28 30 -28 33 0 8 -76 112 -101 139 -9 10 -28 40 -42 65 -13
26 -51 90 -83 142 -31 52 -68 122 -80 155 -13 33 -41 104 -64 159 -106 258
-174 659 -201 1176 -13 255 -24 312 -73 359 -25 24 -32 38 -28 57 2 13 -1 31
-8 39 -7 8 -8 15 -3 15 18 0 103 72 122 104 19 30 78 300 101 461 18 124 38
244 71 435 29 165 68 414 69 434 0 5 42 -31 93 -80 50 -49 121 -114 157 -143
36 -30 69 -60 73 -67 4 -8 13 -14 19 -14 11 0 104 -67 141 -101 10 -9 43 -29
75 -44 31 -15 59 -31 62 -35 17 -23 208 -110 332 -151 207 -68 301 -82 506
-77 179 5 261 20 442 79 144 47 187 67 282 125 48 30 91 54 94 54 10 0 144
101 144 109 0 3 27 26 61 51 33 24 74 61 90 82 17 21 54 63 84 93 29 30 58 69
65 85 7 17 16 30 21 30 4 0 27 33 51 73 23 39 46 75 50 78 5 3 19 35 32 70 13
36 30 79 39 95 42 83 97 321 97 423 0 31 4 61 8 67 13 20 115 80 192 114 41
18 93 40 115 50 53 23 165 56 245 71 42 9 154 13 320 13 250 -1 257 -1 337
-28 66 -21 84 -31 88 -49 3 -12 17 -67 31 -122 14 -55 29 -120 34 -145 9 -50
71 -210 119 -308 17 -34 31 -66 31 -70 0 -13 89 -175 99 -181 5 -4 23 -32 40
-64 34 -63 120 -176 208 -276 59 -65 275 -261 290 -261 4 0 50 -29 103 -64
103 -70 315 -168 450 -209 122 -38 307 -74 440 -88 306 -31 691 44 935 182 29
16 59 29 67 29 13 0 202 121 218 139 3 3 17 13 33 21 67 38 417 367 417 394 0
4 21 32 48 60 53 59 242 338 250 370 3 11 14 33 24 48 23 34 128 254 128 269
0 6 16 54 35 106 20 52 51 149 71 215 80 279 85 728 10 969 -14 46 -32 109
-40 139 -21 77 -70 123 -165 155 -99 34 -188 33 -387 -5 -88 -16 -177 -30
-199 -30 -22 0 -88 -9 -147 -20 -252 -45 -883 -130 -974 -130 -28 0 -157 -11
-285 -25 -129 -14 -299 -32 -379 -40 -80 -8 -271 -29 -425 -46 -154 -17 -338
-34 -410 -39 -71 -5 -230 -21 -353 -34 -245 -27 -275 -37 -340 -110 -56 -64
-63 -136 -22 -229 18 -40 19 -117 1 -117 -3 0 -40 7 -81 15 -106 22 -372 30
-500 16 -144 -16 -328 -55 -430 -92 -47 -17 -107 -37 -134 -44 -26 -8 -68 -26
-92 -40 -24 -14 -48 -24 -53 -21 -5 3 -11 32 -15 65 -4 32 -16 89 -27 127 -30
102 -58 211 -74 283 -17 75 -53 134 -98 161 -30 19 -53 20 -472 20 -242 0
-489 5 -550 10 -60 5 -218 18 -350 29 -132 12 -418 34 -635 51 -217 16 -443
35 -501 41 l-106 12 -12 95 c-13 106 -57 326 -94 473 -14 52 -27 115 -28 140
l-4 44 85 6 c78 6 128 14 235 39 22 5 90 21 150 35 107 25 229 59 330 92 28 9
93 39 145 66 52 27 109 56 125 64 46 24 128 76 145 92 8 8 39 30 69 49 47 30
121 94 205 177 58 57 161 178 173 203 7 15 34 52 58 82 44 54 114 198 156 322
34 103 49 202 49 334 0 199 -22 357 -91 664 -37 167 -98 434 -109 478 -7 28
-6 33 13 36 12 3 45 10 72 15 116 25 537 93 625 101 52 5 188 22 302 39 338
50 745 101 878 111 69 4 283 24 475 44 485 49 1004 92 1146 95 62 1 78 -2 83
-15z m9117 -1612 c-8 -3 -9 -8 -2 -16 6 -7 12 -77 13 -157 l3 -144 733 -3 732
-2 0 -325 0 -325 -731 -2 -731 -3 -2 -1162 c-1 -928 2 -1164 12 -1168 10 -3
1204 -10 1289 -6 11 0 24 -6 27 -15 4 -11 1 -14 -13 -9 -13 4 -20 0 -24 -14
-2 -10 -15 -25 -28 -32 -21 -10 -23 -10 -14 2 6 8 2 6 -7 -4 -10 -11 -24 -17
-32 -14 -8 3 -17 0 -20 -8 -4 -10 4 -12 32 -9 35 5 36 4 17 -10 -17 -14 -18
-17 -5 -26 9 -6 10 -10 3 -10 -6 0 -15 5 -18 10 -4 6 -11 7 -17 4 -7 -4 -8 -2
-4 4 10 16 -10 15 -26 -1 -7 -8 -19 -12 -26 -9 -8 2 -10 -2 -5 -14 5 -14 3
-16 -12 -10 -11 4 -16 4 -13 0 4 -4 3 -16 -3 -26 -8 -14 -8 -23 0 -31 6 -6 11
-16 11 -22 0 -5 -5 -3 -10 5 -8 12 -10 12 -10 1 0 -8 -7 -11 -19 -8 -16 4 -18
1 -12 -17 5 -11 11 -20 15 -18 3 1 11 2 17 2 5 0 7 5 4 10 -7 11 8 14 19 3 3
-4 -3 -12 -16 -19 -16 -8 -22 -22 -23 -48 -1 -20 3 -36 8 -36 6 0 7 -3 4 -6
-4 -4 -13 -1 -22 6 -8 7 -22 10 -30 6 -8 -3 -15 -2 -15 2 0 5 -7 17 -16 28
-15 18 -15 18 -5 -2 6 -12 7 -24 4 -28 -4 -4 3 -9 15 -13 12 -3 22 -13 21 -22
0 -10 -2 -11 -6 -3 -2 6 -9 12 -14 12 -6 0 -7 -6 -4 -12 4 -7 0 -5 -9 6 -14
18 -15 17 -13 -10 2 -25 -2 -29 -23 -29 -27 0 -90 -34 -90 -48 0 -4 4 -6 9 -3
5 3 11 -3 14 -13 3 -13 -1 -21 -15 -24 -15 -4 -17 -2 -8 8 8 10 4 12 -17 12
-16 0 -22 -2 -15 -4 6 -3 12 -11 12 -19 0 -9 -6 -11 -17 -7 -16 6 -16 5 -4
-10 8 -10 11 -20 7 -24 -3 -3 -6 -1 -6 5 0 7 -12 12 -26 12 -16 0 -23 4 -18
11 10 17 -30 -7 -47 -27 -11 -15 -11 -16 0 -10 9 6 12 5 9 -5 -3 -8 -1 -22 4
-31 6 -14 5 -18 -7 -18 -9 0 -13 5 -10 10 9 14 -19 12 -34 -2 -10 -11 -11 -10
-6 5 8 20 1 22 -17 4 -10 -11 -90 -15 -358 -20 -190 -4 -346 -7 -347 -7 -2 0
-3 -23 -3 -51 0 -33 -4 -48 -11 -44 -6 4 -5 -3 3 -14 11 -18 11 -23 -1 -30
-10 -7 -10 -10 -1 -16 20 -13 -11 -26 -45 -19 l-30 7 24 -20 c19 -15 21 -22
11 -28 -9 -5 -11 -4 -6 3 10 16 -5 14 -28 -3 -11 -8 -28 -15 -38 -15 -9 0 -15
-6 -13 -12 2 -7 -2 -22 -10 -32 -12 -16 -18 -17 -27 -8 -7 7 -17 12 -22 12 -6
0 -4 -5 4 -10 13 -9 13 -10 0 -11 -8 -1 -19 -3 -25 -4 -5 -2 -14 -3 -19 -4 -5
0 -2 -9 5 -18 9 -10 9 -14 2 -10 -7 5 -17 -1 -23 -14 -7 -11 -14 -18 -17 -15
-3 3 0 12 7 21 7 9 10 18 6 22 -3 3 -6 1 -6 -6 0 -8 -8 -11 -20 -8 -26 7 -58
-22 -39 -34 18 -11 29 -2 23 19 -5 14 -3 14 10 -2 23 -29 20 -39 -13 -34 -22
3 -28 1 -23 -11 3 -9 1 -12 -6 -7 -7 4 -12 2 -12 -4 0 -6 -10 -8 -26 -4 -20 5
-25 4 -20 -5 6 -8 0 -10 -21 -6 -23 4 -24 4 -8 -4 11 -5 14 -10 7 -10 -7 -1
-11 -5 -7 -10 3 -5 0 -13 -6 -17 -7 -4 -9 -3 -6 3 4 6 0 14 -9 17 -18 7 -34 0
-34 -15 0 -6 5 -7 10 -4 6 3 10 4 10 1 0 -3 -10 -10 -21 -17 -17 -9 -20 -8
-13 3 6 11 5 11 -9 -1 -19 -15 -23 -36 -5 -25 6 4 8 3 5 -3 -3 -5 -20 -8 -37
-7 -29 2 -32 0 -27 -22 3 -16 0 -23 -7 -21 -6 2 -11 9 -11 15 0 5 -4 14 -9 19
-5 5 -6 3 -2 -4 4 -7 2 -13 -4 -13 -6 0 -8 -4 -5 -10 3 -5 -1 -10 -10 -10 -9
0 -14 -4 -10 -9 3 -5 1 -12 -3 -15 -5 -3 -10 57 -11 132 -2 75 -4 153 -6 172
-1 19 -3 88 -4 153 l-1 117 -1003 0 -1004 0 -43 88 c-24 48 -53 105 -63 127
-11 22 -44 76 -73 121 -30 44 -54 86 -54 92 0 7 15 34 33 60 17 26 43 71 56
100 17 37 30 52 45 53 12 1 30 3 41 4 11 1 480 3 1043 3 l1022 2 0 1165 0
1165 -812 1 c-447 0 -835 2 -863 4 -27 1 -116 3 -197 4 l-148 1 0 65 c0 41 4
65 11 65 8 0 9 4 0 13 -15 18 -5 26 27 22 15 -2 21 -1 13 2 -11 5 -11 7 0 15
11 8 11 9 -1 5 -8 -2 -24 -1 -35 4 -18 7 -18 8 -2 8 12 1 16 5 11 14 -6 9 -4
9 8 -1 10 -8 27 -10 45 -7 21 5 24 4 13 -4 -10 -7 -11 -11 -3 -11 7 0 17 9 23
21 9 16 18 19 38 15 17 -4 11 2 -18 16 -28 15 -48 19 -52 13 -5 -6 -8 -6 -8 2
0 16 17 26 25 13 3 -5 16 -10 29 -10 12 0 28 -6 35 -12 10 -11 11 -10 6 5 -4
9 -11 17 -16 17 -5 0 -9 4 -9 10 0 5 8 6 18 3 14 -6 15 -4 5 9 -11 12 -9 17
12 28 14 7 28 10 32 7 3 -4 -1 -7 -10 -7 -10 0 -17 -8 -17 -20 0 -11 4 -20 10
-20 5 0 7 7 4 15 -5 11 -2 13 10 9 9 -3 13 -11 9 -18 -4 -6 1 -5 10 3 9 7 17
19 17 25 0 6 -5 4 -10 -4 -5 -8 -10 -13 -11 -10 -8 44 1 74 17 49 4 -8 9 -7
15 2 7 12 9 12 9 0 0 -11 5 -10 20 4 11 10 17 22 14 26 -3 5 -1 9 5 9 5 0 12
-5 14 -10 3 -6 4 -5 3 2 -4 19 -36 22 -36 4 0 -11 -9 -16 -30 -16 -19 0 -30 5
-30 14 0 15 16 16 38 3 6 -5 12 -6 12 -3 0 2 3 12 7 22 4 12 3 15 -6 10 -9 -6
-9 -3 1 13 7 12 17 21 22 21 5 0 7 -3 3 -6 -3 -4 1 -13 9 -21 16 -17 49 -10
38 8 -3 6 0 15 7 20 20 12 31 11 23 -3 -5 -7 -3 -8 6 -3 7 4 16 2 21 -6 6 -9
7 -4 3 16 -4 17 -11 32 -16 33 -4 2 -8 8 -8 13 0 6 5 7 10 4 6 -3 10 -1 10 6
0 7 7 4 15 -7 11 -14 14 -15 9 -2 -3 11 6 25 30 44 26 21 32 31 24 41 -6 7 -7
13 -3 13 4 0 1 8 -6 18 -13 16 -12 16 7 -1 13 -11 28 -15 39 -11 13 5 16 4 11
-4 -4 -7 -2 -12 5 -12 8 0 6 -5 -5 -13 -16 -12 -16 -13 2 -13 13 0 19 7 18 23
-1 13 2 22 5 20 4 -1 15 6 26 15 18 16 67 18 661 18 l642 0 1 -92 c1 -51 1
-99 0 -107 -2 -11 0 -11 12 0 8 8 13 17 11 21 -5 8 35 48 48 48 4 0 8 5 8 12
0 6 -8 4 -19 -6 -15 -14 -21 -15 -27 -4 -4 7 -4 10 0 6 5 -4 17 2 29 12 15 15
24 17 34 8 7 -6 16 -8 20 -4 3 3 0 6 -7 6 -9 0 -7 5 6 16 10 8 13 13 7 9 -7
-3 -13 -1 -13 4 0 6 5 11 10 11 6 0 10 13 10 29 0 17 4 32 9 35 5 3 61 6 126
7 90 0 117 4 122 15 3 8 9 12 13 9 5 -3 14 3 20 12 10 16 10 15 5 -4 -4 -13
-3 -23 2 -23 14 0 13 43 0 53 -8 6 -7 7 5 4 18 -6 32 18 21 36 -4 7 1 6 10 -2
21 -17 49 -7 41 14 -4 9 0 15 10 16 29 3 34 4 42 11 3 4 -3 6 -15 3 -28 -5
-27 3 2 15 16 6 17 9 5 9 -9 1 -20 6 -24 13 -4 6 -3 8 3 5 5 -3 21 -8 36 -11
23 -4 28 0 34 22 4 15 6 34 5 42 -1 8 3 5 10 -7 l13 -21 28 24 c15 13 24 24
18 24 -5 0 -16 -7 -25 -15 -27 -27 -28 -16 -2 16 14 17 24 34 21 38 -2 5 7 6
22 3 17 -3 24 -1 19 6 -3 6 -2 13 3 17 5 3 14 -2 18 -10 8 -14 12 -13 28 5 14
15 21 18 24 9 2 -7 -1 -15 -8 -17z m-21661 -645 l0 -327 -305 0 c-202 1 -307
5 -311 12 -4 7 -9 7 -13 0 -3 -5 -7 17 -7 50 -1 36 2 55 7 47 6 -11 11 -11 20
-2 10 10 7 14 -12 22 -18 7 -20 10 -6 10 10 1 15 6 12 11 -4 6 -11 8 -16 5
-20 -13 -15 86 6 111 12 14 28 7 19 -8 -4 -7 -2 -8 5 -4 9 6 9 11 0 22 -6 8
-8 14 -3 14 5 0 0 8 -11 17 -14 11 -15 14 -3 10 9 -3 19 -3 23 1 4 4 12 7 18
7 7 0 12 12 13 27 1 15 -3 25 -7 22 -5 -3 -9 4 -9 16 0 12 -5 18 -10 15 -6 -4
-8 -10 -5 -15 3 -5 1 -11 -4 -14 -5 -4 -8 2 -6 11 2 10 4 18 5 18 1 0 3 10 6
22 3 18 0 21 -14 17 -12 -4 -13 -3 -4 3 8 6 10 17 5 29 -7 19 -7 19 13 0 10
-11 19 -29 19 -40 0 -12 8 -22 18 -24 21 -4 23 14 1 22 -8 3 -12 11 -9 17 4 6
-3 22 -16 35 -18 19 -19 23 -6 18 13 -5 17 -2 14 12 -1 11 -7 25 -12 33 -5 10
-4 16 3 19 7 2 12 13 12 24 0 16 -3 18 -14 9 -11 -9 -16 -9 -22 0 -4 7 -3 9 3
6 6 -4 16 0 23 8 10 12 10 15 -3 15 -37 0 -21 15 18 18 32 1 44 -2 49 -15 6
-15 7 -15 19 0 13 18 82 22 360 22 l137 0 0 -328z m3068 9 c1 -176 -1 -323 -5
-327 -5 -4 -151 -10 -325 -14 l-318 -7 0 336 0 336 323 -2 322 -3 3 -319z
m3162 -5 l0 -331 -325 0 -325 0 0 324 0 325 43 3 c23 2 169 4 325 6 l282 3 0
-330z m12590 -1 l0 -330 -325 0 -325 0 0 323 c0 178 3 327 7 330 3 4 150 7
325 7 l318 0 0 -330z m6454 315 c3 -8 3 -24 1 -37 -3 -12 -5 -108 -6 -213 l-1
-189 -27 -24 c-14 -12 -19 -20 -11 -17 11 4 16 -1 17 -14 1 -11 -5 -22 -14
-25 -11 -4 -14 -2 -9 9 8 22 -7 18 -22 -6 -8 -12 -9 -18 -3 -14 6 3 11 2 11
-4 0 -5 8 -12 18 -14 10 -3 7 -5 -10 -6 -20 -1 -32 -9 -43 -31 -10 -20 -23
-30 -38 -30 -16 0 -18 -3 -9 -9 24 -15 -55 -21 -280 -21 l-218 0 0 330 0 330
319 0 c264 -1 320 -3 325 -15z m-1294 -5 c-8 -5 -10 -10 -4 -10 6 0 14 3 18 7
10 10 85 12 91 3 3 -4 -5 -10 -16 -13 -12 -3 -18 -10 -15 -15 3 -6 -1 -13 -10
-16 -8 -3 -12 -10 -9 -16 4 -6 11 -8 16 -5 5 4 9 2 9 -3 0 -6 -11 -9 -24 -8
-14 0 -22 6 -19 14 3 6 1 12 -4 12 -5 0 -8 -15 -8 -34 0 -30 2 -33 19 -24 12
7 16 7 12 0 -3 -6 -8 -29 -10 -52 -2 -22 -10 -48 -18 -58 -11 -15 -11 -16 3
-4 14 10 18 10 23 -3 3 -8 0 -15 -6 -15 -18 0 -48 -31 -48 -49 0 -13 2 -13 9
-2 7 10 10 11 16 1 12 -20 14 -60 3 -60 -6 0 -8 6 -5 14 3 8 -2 17 -11 21 -9
3 -13 3 -9 -1 4 -4 1 -14 -5 -23 -7 -9 -8 -13 -3 -8 10 8 45 -20 45 -37 0 -7
-3 -6 -8 2 -6 8 -13 1 -25 -22 -13 -27 -13 -34 -3 -30 16 6 33 -15 19 -25 -13
-9 -10 -40 5 -50 10 -6 9 -11 -4 -22 -16 -13 -17 -12 -11 6 6 17 4 16 -11 -4
-16 -20 -20 -21 -25 -7 -4 9 -1 16 5 16 6 0 8 3 5 6 -8 9 -37 -15 -37 -30 0
-6 4 -5 9 3 7 11 10 10 15 -6 6 -19 36 -28 36 -11 0 4 5 8 12 8 6 0 1 -11 -12
-25 -21 -22 -20 -30 2 -26 4 0 5 -6 1 -14 -4 -12 -9 -13 -19 -4 -10 8 -14 8
-14 0 0 -6 -4 -11 -9 -11 -5 0 -7 9 -4 20 3 11 10 20 15 20 5 0 6 5 3 10 -4 6
-11 7 -17 4 -7 -4 -8 -2 -4 4 12 19 2 14 -18 -10 -15 -18 -16 -20 -2 -15 9 4
16 3 16 -1 -1 -25 -25 -31 -168 -37 l-152 -7 0 326 0 326 188 0 c124 0 182 -4
172 -10z m-20920 -1810 l0 -930 -320 0 -320 0 0 930 0 930 320 0 320 0 0 -930z
m15760 441 c0 -270 -2 -491 -5 -491 -2 0 -12 14 -21 32 -17 32 -171 198 -185
198 -4 0 -37 18 -73 40 -71 44 -199 85 -295 96 l-61 7 0 302 1 303 319 1 320
2 0 -490z m-18832 -135 c-20 -15 -21 -56 -1 -49 17 7 18 -48 1 -66 -9 -9 -9
-12 -1 -7 8 5 12 -130 13 -554 l1 -560 -276 0 c-187 0 -275 3 -275 11 0 5 -4
8 -9 4 -6 -3 -15 3 -21 14 -7 14 -7 22 2 27 7 4 8 3 4 -4 -6 -11 -1 -14 21
-11 4 0 11 -8 15 -18 6 -13 7 -10 3 9 -5 27 8 47 20 28 9 -15 19 -12 33 11 11
17 11 20 0 13 -22 -14 -38 -13 -38 2 0 9 3 13 8 11 12 -8 52 12 52 25 0 9 -3
9 -10 -2 -8 -13 -10 -13 -10 0 0 11 -3 11 -12 2 -13 -13 -29 -16 -25 -4 6 19
-20 12 -30 -9 l-13 -24 2 27 c1 15 5 25 9 22 12 -7 18 22 7 37 -8 11 -9 10 -4
-4 3 -11 2 -16 -4 -12 -13 8 -13 18 3 36 6 8 11 13 10 11 -5 -9 23 -29 34 -25
7 3 16 -2 19 -11 3 -9 11 -16 16 -16 7 0 6 5 -1 13 -6 8 -7 17 -3 21 4 4 3 7
-3 6 -22 -5 -27 1 -14 18 13 15 12 16 -4 3 -20 -16 -37 -7 -19 11 7 7 12 17
12 22 0 6 -5 5 -12 -2 -15 -15 -28 -15 -28 0 0 6 3 8 7 5 3 -4 13 -2 20 5 11
9 17 9 24 -3 7 -11 9 -11 9 0 0 11 3 11 15 1 13 -11 13 -15 3 -21 -8 -6 -9 -9
-2 -9 6 0 17 7 24 15 13 15 4 23 -32 29 -7 1 -19 5 -26 10 -7 4 -20 2 -30 -6
-15 -12 -16 -11 -4 4 9 11 10 18 2 23 -5 3 -10 11 -10 18 0 6 6 3 13 -8 17
-22 37 -12 38 18 1 20 2 20 8 -3 5 -19 9 -22 16 -11 7 12 10 11 16 -5 7 -17 8
-17 8 4 1 12 -5 22 -12 22 -7 0 -14 14 -15 31 -2 19 1 28 8 24 6 -4 9 -1 8 7
-2 7 3 12 9 11 7 -2 12 0 11 5 0 4 2 15 6 24 11 23 -27 61 -45 45 -11 -10 -11
-9 -1 4 6 9 8 20 4 24 -4 5 5 1 21 -8 28 -18 38 -8 12 13 -17 14 -20 30 -5 30
6 0 9 -3 8 -7 -2 -5 5 -19 14 -32 15 -21 17 -21 16 -5 0 10 1 26 3 34 2 8 -2
14 -8 13 -7 -2 -13 4 -13 12 0 9 6 12 17 8 12 -5 15 -2 10 10 -4 11 -1 17 8
17 8 0 15 5 15 11 0 5 6 7 13 3 10 -6 10 -4 0 7 -19 19 -16 38 5 33 11 -3 23
5 33 22 15 25 15 28 -3 46 -17 17 -17 21 -4 40 12 17 13 25 3 37 -11 14 -10
14 7 1 18 -14 19 -13 13 4 -6 14 -4 17 8 12 16 -6 19 3 9 28 -3 9 -13 16 -21
16 -13 0 -13 -3 -2 -17 12 -17 12 -17 -5 -1 -24 22 -13 40 18 28 16 -6 30 -5
42 4 17 13 16 14 -4 25 -12 7 -21 8 -20 4 4 -10 -5 -13 -34 -13 l-21 0 23 25
c13 14 28 25 34 25 6 0 5 -4 -2 -9 -11 -6 -9 -9 6 -13 14 -4 19 -2 16 6 -3 9
8 13 35 12 22 0 38 -3 36 -6 -2 -3 0 -12 6 -20 7 -12 9 -12 9 -1 0 7 6 11 14
8 14 -6 39 20 43 44 2 8 -4 4 -13 -8 -22 -30 -32 -29 -26 2 5 27 34 49 47 37
5 -4 5 -2 1 5 -4 7 -13 10 -21 7 -11 -5 -12 0 -5 24 9 35 5 43 -18 35 -12 -4
-11 -1 3 10 23 18 45 22 45 7 0 -5 -8 -6 -17 -3 -15 6 -16 4 -6 -9 7 -8 9 -19
5 -23 -4 -5 -2 -5 5 -1 6 3 14 2 18 -4 3 -5 1 -10 -6 -10 -7 0 -10 -3 -6 -6 9
-10 28 6 21 18 -8 13 -11 67 -4 66 20 -1 43 5 33 9 -7 2 -13 9 -13 15 0 6 -7
16 -17 23 -13 9 -13 14 -3 20 9 6 11 4 5 -5 -6 -10 -4 -12 8 -7 16 6 22 -3 18
-26 -1 -5 3 -6 8 -2 6 3 8 13 5 23 -5 14 -3 14 10 -2 18 -23 20 -18 6 18 -7
20 -14 24 -35 20 -17 -3 -24 -1 -20 6 4 6 14 9 23 8 9 -2 17 4 18 12 3 35 5
40 17 38 6 -2 11 4 9 12 -3 12 -1 13 10 2 11 -11 10 -16 -4 -26z m18366 -454
c21 -14 46 -37 55 -50 9 -13 28 -38 43 -56 44 -53 97 -195 114 -309 24 -156 9
-285 -48 -433 l-31 -81 -46 28 c-38 25 -55 29 -113 29 -62 0 -120 -16 -138
-39 -3 -3 -31 -23 -63 -44 -32 -21 -76 -54 -99 -75 -45 -40 -138 -175 -138
-200 0 -8 -9 -40 -20 -71 -11 -31 -26 -96 -33 -146 l-14 -90 -7 85 c-4 47 -8
126 -10 175 -4 81 -16 202 -46 470 -6 50 -15 137 -20 195 -12 127 -25 228 -45
335 -21 117 -20 133 13 148 15 6 29 15 32 18 10 13 176 101 220 117 71 25 127
31 245 25 98 -4 114 -7 149 -31z m-3714 -280 c0 -4 -11 -23 -25 -42 -14 -19
-25 -39 -25 -45 0 -6 -17 -31 -37 -56 -21 -25 -56 -72 -78 -103 -61 -87 -137
-189 -158 -211 -10 -11 -25 -34 -33 -52 -9 -17 -30 -47 -47 -65 -41 -43 -89
-106 -106 -140 -8 -16 -18 -28 -22 -28 -4 0 -52 -60 -107 -133 -55 -72 -111
-143 -125 -157 -13 -14 -31 -38 -40 -55 -9 -16 -45 -64 -81 -105 -36 -41 -66
-80 -66 -85 0 -6 -15 -26 -32 -45 -18 -19 -55 -64 -83 -101 -134 -177 -168
-219 -176 -219 -5 0 -9 -5 -9 -11 0 -12 -90 -132 -103 -137 -4 -2 -28 -35 -53
-73 -25 -38 -51 -72 -57 -77 -17 -10 -87 -99 -87 -109 0 -5 -10 -19 -22 -31
-20 -18 -29 -19 -70 -12 -57 11 -268 119 -268 137 0 7 3 13 8 13 4 0 22 23 40
50 18 28 53 73 78 101 25 28 57 69 71 92 15 23 34 49 43 57 9 8 61 74 115 145
54 72 110 142 124 156 14 14 36 44 49 65 13 21 47 66 77 98 30 33 55 65 55 71
0 7 29 45 64 84 35 40 70 85 77 100 8 14 17 28 20 31 8 6 126 155 176 222 18
24 50 63 73 88 22 25 40 50 40 56 0 7 19 34 43 60 53 60 107 130 107 138 0 3
30 43 66 88 37 46 80 104 96 130 23 37 36 48 61 52 18 3 113 17 212 32 99 14
182 28 184 30 8 7 31 4 31 -4z m-1045 -194 c-30 -40 -55 -79 -55 -85 0 -7 -4
-13 -8 -13 -5 0 -30 -30 -57 -67 -28 -37 -58 -74 -67 -82 -10 -9 -18 -19 -18
-24 0 -10 -45 -70 -103 -137 -22 -25 -43 -54 -47 -65 -5 -11 -40 -58 -79 -104
-39 -47 -71 -90 -71 -97 0 -7 -7 -17 -15 -21 -13 -8 -41 -43 -159 -198 -29
-39 -69 -88 -89 -110 -20 -22 -37 -44 -37 -50 0 -5 -34 -48 -75 -95 -41 -46
-75 -90 -75 -96 0 -6 -10 -19 -21 -30 -28 -24 -129 -150 -129 -161 -1 -4 -18
-25 -39 -46 l-37 -38 -40 43 c-66 74 -162 212 -188 271 -21 48 -22 58 -10 68
8 6 14 16 14 21 0 12 53 82 93 123 17 17 41 48 55 70 14 22 50 67 79 100 30
33 62 73 70 89 9 17 23 37 33 45 10 9 64 77 121 151 57 74 108 140 115 145 7
6 23 28 37 51 14 22 49 67 77 100 29 32 59 72 67 88 8 15 42 60 75 100 l59 71
102 12 c56 6 183 17 282 23 99 6 182 13 184 16 18 18 2 -7 -44 -68z m-4950
-83 c99 -3 208 -8 243 -11 l62 -6 -20 -26 c-11 -15 -32 -44 -45 -64 -13 -20
-35 -47 -48 -60 -40 -39 -107 -125 -107 -137 0 -6 -4 -11 -9 -11 -4 0 -35 -34
-67 -75 -32 -41 -62 -75 -66 -75 -5 0 -8 -6 -8 -12 0 -7 -29 -47 -65 -88 -35
-41 -73 -91 -84 -110 -11 -19 -44 -64 -75 -100 -31 -36 -63 -79 -71 -97 -9
-18 -20 -35 -26 -39 -12 -7 -100 -125 -166 -222 -25 -37 -56 -77 -68 -89 -12
-12 -32 -42 -44 -66 -12 -24 -36 -59 -52 -78 -16 -19 -43 -55 -60 -81 -17 -27
-33 -48 -35 -48 -7 0 -183 150 -248 212 -58 56 -67 69 -61 89 8 27 53 95 101
153 18 21 40 53 49 72 8 18 22 39 29 47 7 7 55 71 106 143 52 71 111 149 132
173 21 24 38 49 38 55 0 6 14 27 31 46 58 68 119 149 119 158 0 5 9 17 21 28
12 10 67 78 122 149 113 145 154 187 177 181 8 -3 96 -7 195 -11z m1059 -23
c3 -5 8 -27 12 -49 5 -36 2 -44 -35 -86 -22 -26 -48 -63 -57 -82 -8 -19 -27
-46 -40 -60 -23 -25 -85 -109 -109 -147 -32 -51 -120 -168 -126 -168 -4 0 -11
-10 -15 -22 -6 -22 -68 -113 -89 -133 -20 -19 -65 -84 -65 -94 0 -6 -15 -28
-33 -48 -18 -21 -75 -96 -126 -166 -51 -70 -100 -136 -111 -147 -10 -10 -25
-33 -34 -52 -9 -18 -37 -55 -62 -83 -25 -27 -58 -70 -72 -95 -14 -25 -34 -53
-43 -63 -10 -9 -62 -76 -115 -147 -64 -87 -103 -130 -115 -130 -49 0 -296 85
-323 111 -6 6 -4 14 5 21 9 7 38 42 64 78 27 36 52 67 55 70 3 3 17 23 32 45
15 22 50 67 78 100 27 32 50 64 50 70 0 5 29 43 64 84 35 41 72 89 83 106 10
18 45 68 78 111 33 43 83 110 110 149 28 39 62 85 78 101 15 16 30 38 33 49 4
11 23 40 43 65 57 70 111 147 111 158 0 6 4 12 8 14 7 3 35 39 121 158 9 14
33 48 51 75 18 28 38 55 45 60 14 12 66 90 84 128 l14 27 173 0 c95 0 175 -4
178 -8z m-3074 -309 c0 -96 68 -350 120 -453 10 -19 23 -54 29 -78 7 -23 28
-69 47 -102 32 -55 34 -64 28 -112 -6 -47 -8 -50 -17 -28 -5 14 -20 49 -33 78
-13 29 -24 59 -24 67 0 19 -158 183 -185 191 -11 4 -45 23 -75 43 -51 33 -61
36 -131 36 -66 0 -81 -4 -117 -27 -49 -33 -92 -37 -92 -9 0 107 230 387 340
414 14 3 41 10 60 15 19 6 38 10 43 11 4 1 7 -20 7 -46z m-6620 -448 l0 -325
-330 0 -330 0 0 325 0 325 330 0 330 0 0 -325z m3058 -2 l2 -323 -325 0 -325
0 0 325 0 325 323 -2 322 -3 3 -322z m2772 324 c0 -2 -12 -32 -26 -68 -53
-129 -75 -242 -81 -416 l-6 -163 -73 0 -74 0 0 325 0 325 130 0 c72 0 130 -1
130 -3z m12512 -293 c21 -15 48 -43 60 -63 12 -20 37 -55 55 -79 28 -37 121
-194 172 -290 8 -15 20 -32 27 -39 20 -21 74 -182 74 -223 0 -71 -30 -110 -97
-124 -76 -17 -179 45 -233 140 -17 31 -40 66 -51 77 -10 12 -19 26 -19 32 0 6
-17 40 -39 76 l-39 64 29 130 c15 71 27 131 25 132 -2 2 -21 -46 -42 -106
l-38 -110 -21 38 c-12 20 -24 46 -28 57 -3 10 -15 44 -26 74 -23 62 -26 115
-10 157 30 81 127 108 201 57z m-11840 -364 c72 -60 75 -151 8 -281 -22 -43
-40 -86 -41 -96 0 -10 -20 36 -44 102 -24 66 -44 117 -44 113 -1 -11 49 -240
55 -249 6 -11 -18 -59 -65 -129 -21 -30 -48 -77 -61 -105 -32 -67 -130 -162
-183 -176 -81 -22 -149 15 -163 87 -8 46 6 124 35 187 12 25 21 51 21 57 0 15
49 90 58 90 5 0 32 48 61 106 29 58 72 129 95 157 23 29 57 74 75 100 37 54
57 65 116 66 31 1 49 -6 77 -29z m11739 -700 c4 0 34 -15 66 -34 32 -19 78
-40 102 -47 l44 -13 -7 -90 c-4 -50 -11 -95 -17 -101 -5 -5 -65 -12 -134 -15
l-125 -5 0 182 0 181 31 -29 c17 -16 35 -29 40 -29z m519 -285 c21 -23 22 -30
16 -102 -4 -43 -14 -91 -22 -107 -8 -16 -14 -35 -14 -41 0 -19 49 -25 190 -25
114 0 130 -2 154 -21 14 -11 26 -27 26 -36 0 -26 -33 -72 -59 -82 -53 -21
-166 -34 -247 -27 l-81 6 -7 -58 c-4 -32 -6 -299 -5 -595 2 -613 5 -591 -74
-585 -38 3 -44 7 -62 43 -19 38 -20 58 -18 445 0 223 6 441 12 485 27 209 33
276 28 281 -3 3 -54 14 -114 25 -59 10 -118 21 -131 24 -35 9 -112 90 -112
119 0 2 7 12 16 20 18 18 149 22 219 7 22 -5 65 -12 96 -16 l56 -6 7 108 c6
98 9 110 33 135 33 35 62 35 93 3z m-12742 -365 c12 -19 23 -69 30 -137 7 -58
14 -108 16 -111 3 -2 50 3 106 12 198 31 297 18 268 -37 -46 -88 -96 -113
-245 -124 -45 -3 -87 -9 -94 -14 -13 -8 -10 -46 22 -284 6 -45 12 -261 12
-490 2 -374 0 -413 -16 -442 -32 -60 -85 -69 -120 -21 -19 25 -20 42 -18 555
1 290 -1 559 -5 596 l-7 68 -81 -7 c-131 -10 -282 22 -306 65 -15 28 -13 46 9
72 18 23 26 24 184 29 91 3 169 8 172 12 4 4 1 22 -8 40 -8 18 -19 70 -23 116
-6 78 -5 84 16 107 32 34 66 32 88 -5z m12369 -380 c-2 -41 -9 -111 -15 -155
-6 -44 -17 -206 -23 -361 -12 -276 -12 -283 10 -375 28 -119 54 -168 114 -213
81 -62 130 -70 214 -37 26 10 67 21 91 25 l43 6 -3 -97 -3 -98 -321 -3 -321
-2 -27 25 c-15 14 -22 25 -15 25 7 0 10 3 6 6 -3 3 -11 3 -17 -1 -8 -5 -7 -12
5 -24 15 -17 -4 -18 -385 -20 -220 -1 -400 0 -400 3 0 3 14 36 31 73 30 65 56
139 157 436 l47 137 297 0 298 0 0 365 0 366 111 -3 111 -3 -5 -75z m-15339
-487 c4 -118 1 -3056 -2 -3060 -2 -2 -562 -5 -613 -4 l-23 1 0 936 c0 880 1
938 18 950 14 11 14 13 2 14 -18 0 -21 50 -3 50 9 0 10 7 3 26 -6 14 -6 23 -1
20 5 -3 11 3 14 15 4 14 -1 23 -16 30 -21 8 -21 9 3 6 31 -3 42 -17 28 -35 -9
-10 -8 -16 3 -23 12 -7 12 -9 -1 -9 -9 0 -16 -10 -16 -25 -1 -14 3 -25 8 -25
6 0 8 -6 5 -14 -3 -8 1 -20 9 -26 10 -9 14 -9 14 -1 0 6 -5 11 -11 11 -8 0 -8
5 1 15 10 12 9 16 -4 21 -9 3 -13 10 -10 15 3 5 10 6 16 3 7 -4 8 -2 4 5 -4 6
-2 19 6 28 8 10 8 14 1 10 -6 -4 -14 -3 -17 2 -11 18 12 21 29 5 13 -14 14
-19 3 -25 -9 -6 -10 -9 -1 -9 7 0 17 10 24 21 9 17 8 20 -3 14 -10 -6 -10 -5
-1 5 13 14 37 4 27 -12 -4 -6 -2 -8 4 -5 11 8 11 25 -1 45 -5 7 -3 12 7 12 8
0 17 -8 19 -17 4 -15 5 -15 6 -2 0 9 -5 22 -13 28 -11 10 -17 7 -30 -10 -14
-20 -56 -37 -56 -23 0 12 28 33 35 26 5 -4 5 -1 1 6 -6 11 -12 10 -27 -4 -10
-9 -19 -12 -19 -6 0 6 10 18 22 26 16 11 22 26 23 53 0 23 5 38 15 40 11 3 12
2 3 -4 -12 -9 -6 -56 6 -49 17 11 2 59 -29 91 -25 26 -42 35 -67 35 l-33 0 0
335 0 335 48 1 c26 0 65 2 87 4 22 1 84 4 138 5 73 2 97 6 97 16 0 7 4 15 9
18 5 4 7 -4 4 -16 l-5 -23 19 22 c14 16 23 19 41 12 12 -4 22 -13 22 -18 0 -5
19 -9 43 -9 23 0 36 3 30 5 -17 6 -16 23 3 44 10 11 12 19 5 24 -6 3 -11 2
-11 -3 0 -6 -7 -13 -16 -16 -13 -5 -14 -4 -6 7 7 8 8 18 4 22 -4 5 -1 4 7 0
11 -6 13 -4 8 11 -6 15 -3 13 11 -5 13 -16 21 -20 26 -12 4 6 12 9 17 6 5 -4
9 -1 9 4 0 6 6 11 14 11 8 0 17 4 20 8 2 4 -11 6 -30 4 -28 -3 -34 -1 -33 14
0 11 3 14 6 6 2 -6 9 -10 13 -7 5 3 6 13 3 22 -6 15 -5 16 9 3 9 -8 13 -19 10
-24 -3 -5 0 -6 7 -2 6 4 9 12 6 17 -4 5 -2 9 2 9 7 0 9 44 3 60 -1 3 -2 9 -1
14 1 5 -4 13 -11 19 -9 6 -8 7 5 3 9 -3 17 -1 17 4 0 6 1 10 3 10 1 0 4 -53 5
-117z m2708 -400 c0 -137 3 -285 7 -330 l8 -83 -100 0 -101 0 0 330 0 330 93
0 93 0 0 -247z m15909 -88 l0 -330 -315 -1 c-173 0 -321 1 -327 4 -10 3 -13
78 -13 326 0 178 3 326 7 329 4 4 151 6 327 5 l321 -3 0 -330z m-21674 263 c1
-89 1 -419 0 -510 l-1 -78 -326 0 c-280 0 -325 2 -315 14 7 8 8 17 4 19 -5 3
-10 143 -11 311 l-3 306 326 0 325 0 1 -62z m6529 50 c0 -10 2 -10 9 0 5 9 10
1 14 -25 10 -59 8 -155 -3 -148 -5 3 -6 13 -3 22 4 10 2 14 -5 9 -11 -6 -13
-45 -2 -44 24 2 30 -6 30 -39 0 -34 -1 -36 -14 -17 -12 15 -14 16 -12 3 1 -10
8 -24 15 -33 7 -9 11 -23 7 -31 -3 -8 -2 -15 2 -15 11 0 12 -39 1 -45 -5 -4
-9 -1 -9 4 0 6 -7 11 -15 11 -21 0 -19 -18 4 -25 26 -8 34 -31 11 -31 -10 0
-16 5 -13 12 3 8 -5 10 -23 6 -22 -4 -24 -6 -10 -14 26 -15 18 -28 -16 -27
l-33 1 30 7 c24 5 26 8 13 13 -25 10 -22 26 5 31 18 4 17 4 -6 6 -16 0 -26 5
-22 10 3 5 1 12 -5 16 -5 3 -10 13 -10 21 0 8 5 12 10 9 6 -3 10 -2 10 4 0 5
-4 12 -8 15 -11 7 -12 156 -1 156 4 0 11 -4 14 -10 9 -15 25 -12 25 5 0 7 8
19 18 24 11 7 12 10 3 11 -7 0 -11 6 -7 15 3 8 2 15 -2 15 -4 0 -17 3 -29 6
-14 4 -23 2 -23 -5 0 -5 7 -8 15 -5 19 8 31 -22 16 -40 -6 -7 -7 -17 -3 -21 4
-5 1 -5 -5 -1 -7 4 -13 14 -13 22 0 8 5 12 10 9 6 -3 10 -1 10 5 0 7 -8 9 -20
5 -18 -6 -20 -2 -20 40 0 34 3 44 13 39 10 -6 10 -4 0 7 -20 21 -15 29 17 29
17 0 30 -5 30 -12z m14350 -313 l0 -325 -937 2 c-930 3 -938 3 -939 23 -1 11
-2 135 -3 276 -1 200 -4 258 -14 262 -8 3 -14 -3 -14 -14 -1 -11 2 -17 7 -14
6 3 7 -1 4 -9 -7 -18 -41 -17 -41 1 0 6 4 10 9 7 4 -3 8 0 8 5 0 6 -4 11 -10
11 -5 0 -10 23 -10 50 l0 50 970 0 970 0 0 -325z m-2060 -1640 l0 -935 -320 0
-320 0 0 935 0 935 320 0 320 0 0 -935z m2850 0 l0 -935 -320 0 -321 0 5 628
c2 345 5 765 5 935 l1 307 315 0 315 0 0 -935z m-5332 -305 c31 -22 77 -56
102 -75 25 -19 50 -35 55 -35 6 0 26 -14 45 -31 32 -30 33 -32 20 -63 -7 -17
-15 -47 -17 -67 -4 -31 -15 -45 -69 -88 -35 -28 -68 -51 -73 -51 -5 0 -11 -4
-13 -8 -3 -9 -143 -122 -225 -182 -26 -19 -63 -50 -82 -68 -20 -18 -50 -40
-67 -48 -18 -8 -47 -30 -65 -48 -19 -18 -59 -50 -89 -70 -30 -20 -65 -45 -78
-56 -13 -11 -50 -38 -83 -61 -32 -23 -59 -46 -59 -50 0 -5 -6 -9 -13 -9 -13 0
-115 -65 -132 -84 -14 -16 -93 -66 -103 -66 -5 0 -22 -10 -38 -22 -47 -38
-156 -107 -201 -128 -24 -10 -66 -34 -95 -53 -60 -38 -470 -242 -508 -253 -14
-4 -47 -17 -75 -30 -124 -57 -243 -106 -280 -114 -22 -4 -76 -22 -120 -40
-123 -48 -275 -100 -325 -110 -25 -5 -119 -29 -210 -55 -178 -50 -378 -95
-422 -95 -27 0 -28 2 -28 53 0 30 9 88 20 130 19 78 99 259 119 271 6 4 11 14
11 23 0 20 77 123 91 123 6 0 32 15 58 34 60 44 202 116 229 116 19 0 170 54
237 84 62 29 159 66 171 66 11 0 152 61 279 120 22 10 54 22 70 26 31 7 59 18
216 90 52 24 129 55 170 68 77 25 373 168 494 237 39 23 102 58 142 79 39 21
89 52 110 69 21 16 56 40 79 53 47 26 197 138 202 150 2 4 9 8 16 8 15 0 114
68 154 105 15 14 42 32 61 41 19 9 71 48 115 85 100 85 121 88 204 29z m-8156
-641 c67 -34 147 -68 177 -75 30 -8 60 -18 65 -23 6 -5 29 -14 51 -21 22 -7
76 -28 120 -47 44 -19 114 -46 155 -60 41 -14 134 -52 205 -84 72 -33 134 -59
138 -59 4 0 36 -13 70 -29 111 -52 236 -100 304 -120 38 -10 163 -48 278 -85
116 -36 219 -66 230 -66 11 0 49 -9 85 -20 160 -50 513 -130 571 -130 29 0
120 -23 405 -101 99 -27 190 -49 202 -49 31 0 176 -64 203 -90 13 -12 42 -34
64 -50 22 -15 65 -56 95 -91 30 -35 68 -75 83 -88 16 -13 44 -47 63 -75 18
-28 47 -69 64 -90 38 -49 38 -66 3 -66 -101 0 -526 46 -733 80 -63 10 -140 21
-170 25 -30 3 -71 10 -90 15 -19 5 -82 21 -140 35 -58 15 -158 42 -222 61 -65
19 -126 34 -136 34 -10 0 -110 32 -223 70 -112 39 -219 75 -237 79 -18 5 -47
20 -65 33 -17 13 -61 42 -97 63 -36 21 -66 43 -68 47 -2 4 -11 8 -20 8 -9 0
-61 28 -116 63 -56 35 -132 80 -171 99 -38 20 -108 59 -154 87 -46 28 -88 51
-93 51 -4 0 -68 34 -141 75 -74 41 -138 75 -144 75 -5 0 -75 34 -155 75 -80
41 -152 75 -161 75 -8 0 -37 11 -64 24 -120 59 -223 105 -283 126 -81 28 -115
45 -160 81 -19 15 -45 30 -57 34 -13 3 -23 9 -23 13 0 16 137 152 153 152 9 0
72 -27 139 -61z m-5164 -388 l52 -1 -2 -327 -3 -328 -322 -3 -323 -2 0 336 0
336 273 -5 c149 -3 296 -6 325 -6z m18658 -1 c7 -7 9 -121 6 -333 -2 -177 -5
-323 -6 -324 -5 -6 -636 -4 -645 1 -17 11 -15 653 2 659 25 11 633 7 643 -3z
m-21675 -177 c1 -194 0 -424 0 -461 l-1 -23 -284 2 c-276 3 -334 8 -321 29 4
6 11 8 16 5 15 -10 -3 29 -20 42 -11 8 -12 12 -3 13 15 0 16 30 1 30 -5 0 -8
-4 -5 -8 3 -5 -1 -9 -9 -9 -12 0 -12 4 2 20 17 18 17 19 0 32 -10 7 -14 16 -9
19 6 3 13 -1 16 -10 3 -8 10 -12 16 -9 6 4 7 -1 3 -11 -4 -12 -3 -15 5 -10 17
10 15 36 -3 36 -8 0 -15 5 -15 11 0 5 4 8 9 4 5 -3 13 0 17 6 4 8 3 9 -4 5
-10 -6 -15 3 -11 17 0 1 -4 15 -10 30 -7 18 -7 26 -1 22 17 -11 11 7 -7 22
-16 13 -16 13 5 3 12 -6 22 -15 22 -21 0 -6 5 -7 11 -3 8 5 8 9 -1 14 -7 4 -9
13 -6 19 4 6 12 8 18 5 7 -4 8 -2 4 4 -4 7 -2 12 3 12 6 0 11 5 11 12 0 6 -7
4 -18 -5 -23 -21 -29 -21 -29 -2 0 8 4 12 8 9 14 -8 21 16 9 31 -9 11 -7 12 9
8 12 -3 19 -9 16 -13 -7 -11 22 -6 32 5 4 4 3 5 -4 1 -17 -9 -28 14 -12 26 11
7 9 8 -5 4 -16 -5 -18 -2 -14 23 4 24 1 29 -15 25 -15 -3 -17 -1 -7 11 7 8 17
12 24 8 6 -3 3 3 -7 15 -18 20 -7 26 18 10 6 -4 17 2 23 13 12 19 11 19 -8 9
-11 -6 -20 -8 -20 -5 0 10 27 35 32 30 3 -3 4 5 4 18 -1 13 4 21 12 19 8 -1
11 2 7 8 -11 17 -45 -7 -39 -28 5 -15 4 -15 -6 -2 -10 13 -11 13 -7 -2 3 -9
-1 -22 -9 -29 -27 -22 -27 0 1 36 15 20 24 39 20 43 -3 3 -10 0 -15 -8 -6 -8
-10 -10 -10 -4 0 15 25 36 33 27 4 -3 7 -1 7 5 0 6 9 9 20 7 12 -2 21 3 25 15
6 18 21 19 240 20 l235 1 1 -178z m6084 112 c-38 -36 -71 -65 -73 -65 -7 0
-132 -103 -132 -109 0 -4 -19 -19 -42 -34 -24 -15 -74 -57 -113 -92 -38 -36
-75 -65 -81 -65 -6 0 -19 -9 -29 -20 -10 -11 -22 -20 -27 -20 -4 0 -8 106 -8
235 l0 235 288 0 287 0 -70 -65z m12745 -257 c0 -178 -4 -328 -8 -335 -5 -8
-36 -12 -86 -12 l-78 0 -61 65 c-33 36 -72 81 -86 101 -14 19 -44 54 -66 77
-22 23 -64 68 -94 101 -29 33 -82 90 -117 128 l-64 67 0 65 0 65 330 0 330 0
0 -322z m2057 152 c2 -91 3 -174 4 -185 0 -11 0 -81 -1 -156 l-1 -136 -92 -6
c-76 -4 -837 -3 -1634 2 l-161 1 4 148 c2 81 4 224 4 319 0 155 2 172 18 175
9 2 431 4 937 4 l920 -1 2 -165z m-8067 -283 c-16 -30 -30 -61 -30 -70 0 -9
-9 -34 -21 -57 -11 -22 -35 -84 -51 -137 -28 -88 -31 -115 -36 -267 l-4 -170
-41 -75 c-22 -42 -45 -83 -52 -91 -19 -24 -95 -174 -95 -189 0 -15 -21 14 -93
132 -38 59 -50 90 -54 132 -5 47 -11 60 -38 83 -18 15 -44 52 -59 82 -49 100
-90 165 -133 209 -12 13 -39 49 -60 79 -20 31 -47 66 -59 77 -12 11 -42 43
-66 70 -24 28 -75 79 -113 115 -39 35 -71 68 -73 72 -2 4 86 8 195 8 310 -1
722 22 906 49 4 0 -6 -23 -23 -52z m-7333 -1987 c40 -5 107 -21 150 -35 43
-14 84 -25 91 -25 20 0 241 -107 277 -134 17 -13 60 -38 96 -55 90 -44 338
-214 386 -263 15 -16 32 -28 39 -28 18 0 135 -112 438 -418 310 -312 382 -388
413 -439 12 -20 26 -39 31 -42 10 -6 61 -68 181 -220 36 -45 68 -81 73 -81 5
0 13 -10 17 -22 11 -27 85 -117 111 -135 10 -7 29 -32 43 -55 14 -24 53 -70
86 -102 34 -33 61 -64 61 -69 0 -4 31 -41 68 -80 38 -40 105 -112 151 -162 45
-49 108 -117 139 -150 31 -33 98 -104 147 -159 50 -54 260 -270 467 -479 208
-210 376 -382 375 -383 -1 -1 -48 8 -105 21 -153 35 -299 48 -426 40 -127 -7
-303 -30 -391 -50 -74 -17 -235 -30 -262 -21 -11 4 -42 35 -69 69 -27 34 -56
69 -64 77 -8 8 -30 38 -47 66 -18 27 -51 70 -73 95 -22 24 -46 58 -55 74 -8
17 -35 53 -61 80 -26 28 -64 73 -85 102 -21 28 -44 55 -50 58 -6 4 -40 52 -76
107 -79 122 -175 220 -292 301 -43 29 -50 31 -150 32 -86 1 -129 7 -226 33
-66 18 -187 45 -270 60 l-150 27 -6 190 c-8 240 -12 266 -54 310 -59 64 -129
38 -275 -103 -36 -34 -68 -62 -71 -62 -10 0 -191 -185 -243 -249 -55 -68 -30
-61 -291 -81 -172 -13 -318 -34 -453 -66 -57 -13 -110 -24 -117 -24 -7 0 -45
25 -84 55 -39 30 -74 55 -77 55 -10 0 -106 71 -138 102 -16 15 -44 34 -63 43
-19 9 -48 29 -66 44 -37 33 -109 71 -133 71 -14 0 -15 9 -9 73 9 88 86 559
115 700 47 227 106 436 151 534 10 24 19 50 19 58 0 8 4 23 10 33 5 9 42 87
82 172 66 141 92 186 163 275 13 17 36 53 50 80 14 28 44 71 68 98 l42 47 100
9 c139 12 208 12 292 1z m-2422 -565 l0 -330 -290 0 c-159 0 -305 2 -322 4
l-33 3 0 322 c0 178 3 325 6 328 3 4 148 5 322 5 l317 -2 0 -330z m-3057 29
c-1 -162 -4 -309 -6 -326 l-4 -29 -312 2 c-171 1 -317 4 -323 7 -10 3 -13 77
-13 323 l0 319 330 0 330 0 -2 -296z m20872 -24 l0 -320 -489 0 -490 0 -16 78
c-10 42 -24 102 -31 132 -8 30 -14 67 -14 82 0 24 -35 163 -75 301 l-14 47
565 0 564 0 0 -320z m800 -5 l0 -325 -327 2 -328 3 -3 323 -2 322 330 0 330 0
0 -325z m-18620 -1600 l0 -935 -135 0 -135 0 -27 33 c-43 49 -127 127 -139
127 -5 0 -20 9 -32 21 -29 26 -121 69 -149 69 l-23 0 0 810 0 810 320 0 320 0
0 -935z m18608 450 c1 -14 -3 -25 -9 -25 -6 0 -9 7 -6 15 4 8 2 17 -3 20 -6 4
-10 -3 -10 -14 0 -23 -16 -36 -25 -21 -8 12 -25 13 -25 1 0 -5 9 -11 20 -14
18 -5 19 -7 4 -36 -19 -38 -26 -40 -18 -3 4 21 3 24 -5 12 -13 -18 -14 -50 -3
-50 4 0 13 5 20 12 9 9 15 9 24 0 9 -9 8 -12 -5 -12 -9 0 -17 -4 -17 -9 0 -11
28 -41 38 -41 3 0 1 5 -6 12 -17 17 -15 24 6 25 15 1 17 -9 19 -73 0 -41 -3
-74 -8 -74 -4 0 -6 8 -3 18 5 13 4 14 -4 3 -6 -8 -8 -19 -6 -25 2 -6 -5 -17
-16 -24 -22 -14 -27 -3 -7 17 8 9 8 12 0 7 -6 -3 -13 -1 -15 6 -3 8 -6 6 -10
-4 -4 -9 0 -24 7 -35 12 -15 16 -16 24 -4 5 8 14 10 21 6 8 -5 11 -4 6 3 -3 6
-2 13 4 17 6 4 10 -6 10 -25 0 -17 -4 -29 -9 -26 -5 3 -11 -4 -14 -16 -4 -12
-1 -25 5 -29 20 -12 18 -37 -2 -32 -10 3 -21 -1 -25 -8 -5 -8 -4 -10 4 -5 8 6
10 0 5 -18 -4 -17 -2 -26 6 -26 6 0 8 -5 5 -10 -4 -6 -15 -8 -26 -5 -11 4 -19
2 -19 -4 0 -6 14 -10 30 -9 29 2 40 20 20 33 -5 3 -10 11 -10 16 0 6 5 7 12 3
7 -4 8 -3 4 4 -4 7 -2 12 3 12 7 0 11 -22 11 -52 0 -38 -3 -49 -10 -38 -7 11
-10 6 -10 -20 0 -23 3 -30 9 -22 5 8 8 -24 8 -77 -1 -50 -5 -91 -10 -91 -5 0
-7 11 -5 25 3 14 1 25 -5 25 -11 0 -2 -70 10 -79 5 -3 10 -32 11 -63 2 -43 0
-58 -10 -58 -10 0 -10 -2 0 -8 16 -11 12 -148 -6 -145 -6 2 -9 -4 -6 -12 4 -8
9 -13 14 -10 4 2 7 -14 6 -36 -1 -23 -7 -44 -16 -49 -12 -8 -12 -10 -1 -10 8
0 11 -6 7 -16 -3 -8 -2 -13 3 -10 5 3 8 -14 7 -39 -1 -43 -8 -56 -21 -36 -3 5
-1 12 5 16 17 10 12 35 -6 28 -8 -3 -13 -12 -10 -20 4 -10 -3 -13 -29 -11 -26
1 -34 6 -30 16 3 7 5 18 5 23 0 5 5 9 11 9 5 0 8 -4 5 -9 -4 -5 2 -8 11 -7 19
3 31 26 13 26 -10 0 -10 3 -1 14 9 10 9 16 1 21 -8 5 -7 12 2 23 12 15 11 16
-4 4 -10 -8 -17 -17 -16 -20 2 -22 -4 -33 -16 -29 -10 4 -13 1 -10 -7 10 -26
-53 -44 -86 -26 -15 8 -20 8 -20 -1 0 -6 -7 -9 -15 -6 -8 4 -17 2 -20 -3 -4
-6 -1 -10 5 -10 7 0 10 -7 6 -17 -4 -11 1 -9 14 7 l21 25 -7 -25 c-4 -14 -12
-28 -18 -32 -7 -4 -4 -9 7 -14 13 -5 15 -10 6 -20 -6 -7 -8 -18 -4 -23 3 -7 0
-8 -9 -5 -9 3 -15 9 -14 12 1 4 -2 18 -6 31 -7 21 -10 22 -20 10 -18 -23 -34
-21 -53 8 -19 29 -25 51 -18 70 5 15 49 -6 70 -33 12 -17 13 -16 8 8 -3 15 -8
27 -12 26 -22 -2 -41 3 -36 12 3 5 13 7 23 4 14 -5 15 -4 2 5 -9 6 -18 7 -24
1 -6 -6 -15 -3 -23 8 -8 9 -11 11 -7 3 5 -10 3 -12 -5 -7 -7 5 -10 15 -7 23 3
8 1 11 -4 8 -6 -3 -10 -2 -10 2 0 5 11 15 25 23 23 15 24 17 10 43 -8 15 -12
35 -9 45 3 9 -2 5 -11 -10 -8 -16 -22 -28 -30 -28 -21 0 -26 -15 -12 -34 12
-17 14 -17 28 0 11 14 11 16 0 10 -9 -6 -12 -5 -9 4 6 18 38 21 38 4 0 -8 -11
-24 -25 -36 -15 -13 -21 -24 -15 -28 18 -11 21 -57 6 -70 -8 -6 -12 -18 -9
-26 4 -10 0 -13 -13 -8 -16 5 -16 3 2 -13 12 -10 20 -26 19 -35 -4 -20 -3 -20
19 -12 9 3 16 10 16 16 0 5 -5 6 -12 2 -7 -4 -8 -3 -4 5 4 6 1 14 -7 16 -11 5
-14 21 -8 55 1 3 11 -13 22 -35 24 -45 37 -57 59 -52 8 1 25 -7 36 -19 22 -22
22 -23 3 -40 -12 -11 -19 -13 -19 -5 0 7 -5 9 -12 5 -17 -11 -58 -13 -58 -3 0
4 -7 5 -17 2 -11 -4 -14 -3 -9 5 4 7 3 12 -2 12 -6 0 -12 -7 -16 -15 -3 -10
-19 -15 -46 -15 -37 0 -40 2 -30 19 13 25 13 34 -1 25 -8 -4 -8 0 0 15 7 11
14 21 17 21 3 0 2 -4 -1 -10 -11 -17 0 -11 18 11 18 20 18 21 -5 13 -13 -4
-33 -7 -45 -6 -13 1 -23 -3 -23 -9 0 -6 6 -9 14 -6 10 4 12 0 9 -14 -4 -15 -8
-17 -19 -8 -8 6 -14 8 -14 3 0 -5 -7 -1 -15 9 -7 10 -21 17 -31 15 -20 -3 -32
-28 -14 -28 6 0 8 5 4 11 -4 7 1 9 12 7 11 -2 18 -10 16 -17 -2 -9 4 -12 17
-8 12 3 22 -1 25 -10 4 -9 1 -12 -7 -8 -6 4 -4 0 5 -8 16 -13 11 -14 -47 -16
-59 -2 -65 0 -65 18 0 14 -6 19 -18 16 -17 -3 -19 4 -19 55 0 49 3 60 21 69
l21 12 -21 -4 c-26 -5 -28 20 -2 29 10 3 18 10 18 16 0 6 -7 5 -17 -3 -9 -8
-14 -9 -10 -2 4 6 1 14 -5 17 -15 6 49 -2 75 -10 9 -3 15 -10 11 -15 -3 -5
-10 -7 -15 -4 -5 3 -6 -1 -3 -9 3 -9 10 -16 16 -16 5 0 6 5 3 10 -3 6 -2 10 4
10 17 0 21 -17 7 -29 -11 -9 -17 -8 -29 4 -14 14 -16 13 -22 -5 -4 -11 -15
-20 -26 -20 -11 0 -17 -5 -14 -10 4 -6 11 -8 16 -5 5 3 6 -1 3 -9 -3 -9 -11
-16 -18 -16 -6 0 -4 -5 4 -10 11 -8 12 -12 3 -18 -7 -4 -9 -13 -5 -19 5 -8 12
-7 26 3 11 8 14 14 8 14 -7 0 -12 7 -12 16 0 8 4 13 9 10 5 -3 14 1 21 9 12
14 39 10 51 -8 10 -14 42 0 33 14 -5 8 -9 8 -14 -1 -4 -7 -10 -8 -13 -3 -5 8
20 50 28 46 13 -7 45 -2 45 8 0 5 -4 7 -10 4 -5 -3 -10 -1 -10 5 0 7 -12 4
-29 -6 -17 -10 -28 -21 -25 -25 2 -4 0 -10 -6 -14 -5 -3 -10 1 -10 9 0 8 4 17
9 20 11 7 11 56 -1 56 -5 0 -7 4 -4 9 4 5 -4 7 -16 3 -20 -5 -21 -3 -10 11 8
9 20 13 28 10 8 -3 14 -1 14 5 0 6 10 8 23 5 21 -5 21 -5 3 9 -15 12 -16 17
-6 23 9 5 11 4 6 -3 -4 -7 -2 -12 4 -12 7 0 10 6 7 13 -2 6 -9 11 -15 10 -5
-1 -18 7 -28 19 -19 21 -19 21 1 14 16 -6 18 -5 8 5 -7 7 -13 22 -14 34 0 18
-2 17 -11 -5 -6 -14 -10 -29 -9 -34 1 -5 -5 -3 -14 4 -15 13 -15 15 -1 25 9 7
13 14 11 17 -9 9 24 30 36 23 6 -4 9 -18 6 -31 -2 -15 1 -24 8 -24 16 0 14 43
-2 53 -16 10 -17 28 -2 24 6 -1 14 5 16 13 4 12 3 12 -5 2 -8 -11 -10 -11 -14
0 -5 11 7 29 25 41 2 1 12 -4 21 -12 13 -11 14 -16 4 -22 -9 -6 -9 -9 -1 -9
16 0 26 17 14 25 -13 7 -2 37 12 32 12 -4 18 -67 6 -67 -9 0 -6 -27 5 -37 4
-4 7 -3 6 2 -5 23 1 35 18 36 15 1 16 2 0 6 -10 2 -15 10 -11 18 4 11 10 12
23 5 13 -7 19 -6 23 4 4 9 0 12 -12 9 -9 -2 -25 5 -35 16 -11 12 -14 21 -8 21
7 0 12 -5 12 -12 0 -9 3 -9 13 1 10 10 8 14 -6 22 -9 6 -15 14 -12 20 4 5 1 9
-5 9 -7 0 -9 -7 -6 -16 4 -10 1 -14 -6 -12 -20 7 -15 32 5 36 10 2 28 -5 39
-15 12 -10 19 -13 16 -8 -3 6 1 17 10 25 14 13 15 12 9 -3 -3 -9 -2 -17 3 -17
6 0 10 8 10 17 0 10 12 27 26 38 23 18 25 24 15 43 -10 18 -14 20 -25 10 -14
-13 0 -32 16 -22 4 3 8 1 8 -5 0 -5 -15 -18 -32 -29 -35 -21 -93 -24 -93 -5 0
18 -12 26 -27 17 -23 -15 -37 -12 -35 6 1 14 4 16 14 8 9 -7 13 -7 13 1 0 7 4
10 9 7 5 -4 7 3 4 15 -4 16 -8 17 -14 7 -7 -10 -9 -9 -9 5 0 10 -4 15 -10 12
-16 -10 -11 17 7 37 20 22 55 25 47 3 -5 -12 -1 -13 26 -4 31 11 45 7 45 -14
0 -15 55 -22 64 -9 3 5 14 6 24 3 16 -6 16 -8 1 -26 -16 -20 -16 -20 -9 0 5
16 4 18 -6 8 -10 -10 -10 -16 -2 -24 8 -8 15 -6 25 10 7 11 18 21 25 21 16 0
17 26 1 36 -8 5 -9 2 -5 -9 7 -20 -4 -22 -21 -5 -9 9 -9 15 1 26 6 8 12 25 12
36 1 12 6 20 13 19 6 -2 9 4 5 13 -3 9 -9 12 -12 7 -16 -25 -102 -49 -87 -25
2 4 -6 8 -19 8 -18 1 -22 -2 -17 -15 5 -14 3 -14 -11 -3 -8 8 -13 20 -10 28 3
8 0 14 -7 14 -6 0 -9 4 -6 8 3 5 -1 9 -9 9 -8 0 -13 -5 -12 -11 1 -6 -4 -10
-11 -8 -8 1 -11 -2 -7 -8 5 -8 11 -8 20 0 9 8 15 8 20 0 3 -5 0 -10 -7 -10 -8
0 -6 -5 5 -11 9 -5 17 -14 17 -18 0 -13 -36 -20 -51 -10 -9 5 -24 -2 -46 -23
-32 -31 -32 -33 -17 -56 9 -14 11 -21 5 -18 -6 4 -14 0 -17 -8 -3 -9 -11 -13
-18 -10 -6 3 -3 -1 6 -9 10 -8 15 -17 11 -20 -3 -4 -1 -7 6 -7 7 0 10 -4 7 -9
-3 -5 4 -11 15 -14 16 -4 20 -11 16 -26 -3 -11 -2 -19 2 -18 3 1 6 -2 6 -8 0
-5 -3 -9 -7 -8 -5 2 -8 -2 -8 -8 0 -5 -5 -7 -11 -4 -6 4 -8 13 -5 20 5 13 -18
15 -30 2 -15 -15 -32 -6 -38 19 -5 19 -10 24 -17 17 -8 -8 -7 -17 0 -31 7 -13
8 -23 1 -27 -5 -3 -8 -24 -6 -46 2 -22 -1 -38 -6 -37 -5 2 -9 7 -8 12 1 5 -3
12 -9 16 -8 4 -6 16 5 39 12 25 14 38 6 54 -10 21 -11 21 -11 2 -1 -16 -3 -17
-10 -5 -12 18 -5 30 19 30 14 0 18 5 14 18 -4 10 -3 13 3 6 10 -13 68 -44 83
-44 24 0 8 20 -17 21 -16 0 -23 3 -16 5 9 4 8 14 -4 39 -9 19 -21 31 -27 28
-6 -4 -5 1 3 10 11 13 17 15 28 6 11 -10 12 -9 7 5 -3 9 -10 16 -16 16 -5 0
-7 4 -4 8 2 4 1 14 -4 22 -7 12 -15 13 -40 3 -26 -10 -29 -9 -21 1 6 7 9 15 7
17 -2 2 9 4 25 4 16 0 29 -4 29 -8 0 -5 5 -5 12 -1 7 4 8 3 4 -4 -4 -7 -1 -12
8 -12 27 0 18 19 -16 35 -18 8 -26 13 -16 11 10 -3 18 3 21 15 3 10 1 19 -4
19 -5 0 -9 -6 -9 -12 0 -7 -6 -4 -12 6 -11 19 -11 19 -24 1 -8 -10 -14 -14
-14 -8 0 19 24 30 53 26 21 -3 27 0 21 8 -4 8 -3 9 5 5 6 -4 18 -2 26 4 12 10
14 5 10 -34 -3 -33 -1 -45 6 -40 6 3 9 18 6 33 l-5 26 18 -23 c10 -12 21 -22
25 -22 3 0 -3 12 -14 26 -26 32 -26 41 -3 47 10 3 6 5 -10 6 -16 0 -28 5 -28
10 0 9 45 5 62 -6 5 -3 8 1 7 8 -5 25 20 59 39 53 14 -5 15 -4 2 5 -13 9 -13
11 0 12 8 1 18 1 21 1 4 -1 14 7 24 18 9 10 23 16 31 13 8 -3 14 -1 14 5 0 5
-7 13 -16 16 -18 7 -64 -18 -64 -35 0 -6 -4 -7 -10 -4 -5 3 -10 2 -10 -4 0
-16 -38 -33 -45 -20 -4 6 2 13 14 16 21 5 30 33 11 33 -5 0 -10 9 -10 20 0 11
-5 20 -11 20 -5 0 -7 5 -3 12 6 9 9 9 12 -1 4 -11 6 -11 14 0 7 10 8 8 5 -9
-5 -19 -2 -22 16 -20 15 2 21 -2 19 -11 -3 -12 -1 -12 13 -1 14 12 14 15 2 22
-10 5 -14 20 -12 42 3 29 0 35 -21 40 -27 7 -31 21 -10 29 10 4 13 1 9 -9 -4
-12 0 -15 18 -12 19 2 24 -1 22 -18 -2 -20 5 -23 50 -15 4 0 4 9 -1 19 -11 22
8 60 27 54 8 -3 11 0 7 6 -3 5 1 13 10 16 27 10 29 -2 6 -27 -17 -18 -19 -26
-10 -35 18 -18 32 -14 17 5 -12 15 -12 16 3 10 9 -3 22 1 28 8 18 21 33 7 26
-24 -5 -22 -5 -23 5 -8 6 10 8 25 5 33 -3 8 1 14 10 14 8 0 13 4 9 9 -7 12
-42 6 -64 -11 -14 -11 -14 -11 -5 2 5 8 9 21 8 28 -1 6 -2 17 -3 22 0 6 -8 10
-16 10 -8 0 -14 -5 -12 -11 1 -6 -4 -14 -12 -16 -10 -4 -11 1 -6 18 5 19 4 21
-4 9 -9 -13 -11 -12 -12 5 -1 11 -1 25 0 30 0 6 -10 11 -23 11 -18 1 -23 -2
-20 -15 3 -9 -1 -6 -8 7 -8 17 -18 22 -32 18 -21 -5 -21 -5 -2 9 11 8 23 15
28 15 4 0 8 4 8 10 0 5 -7 7 -15 4 -8 -4 -15 -1 -15 6 0 6 5 8 10 5 6 -3 10
-2 10 4 0 5 -5 12 -10 14 -6 3 -5 4 2 3 7 -2 18 4 24 12 9 12 13 12 19 2 5 -8
4 -11 -2 -7 -6 4 -13 -2 -16 -13 -3 -11 0 -20 5 -20 7 0 6 -5 -1 -14 -9 -10
-8 -16 4 -26 9 -7 16 -11 18 -9 26 45 28 76 4 63 -8 -5 -8 -2 0 6 16 17 26 8
26 -25 0 -15 5 -25 14 -25 9 0 13 6 9 15 -3 9 0 15 9 15 8 0 15 3 16 8 0 4 2
15 4 25 4 19 3 19 -19 11 -13 -5 -14 -9 -5 -20 8 -10 8 -14 0 -14 -6 0 -11 2
-11 4 0 2 -3 11 -6 20 -4 10 -1 16 9 16 10 0 13 7 10 20 -3 11 -9 18 -12 15
-4 -2 -8 2 -8 10 0 18 18 15 38 -7 15 -17 17 -17 34 2 10 11 21 18 24 15 2 -3
-5 -12 -17 -21 -12 -8 -22 -20 -22 -26 0 -7 4 -7 13 1 8 6 17 8 20 4 4 -3 9 2
13 11 8 21 24 21 24 -1 0 -9 3 -13 7 -9 4 4 8 15 8 24 0 9 8 17 17 17 9 0 20
4 25 8 4 5 4 8 -2 7 -5 -1 -14 -2 -20 -1 -16 2 12 16 37 18 19 2 24 -3 26 -22z
m-17182 -742 c38 -38 96 -90 129 -118 33 -27 62 -53 63 -57 2 -5 8 -8 14 -8
12 0 71 -45 142 -107 26 -24 54 -43 60 -43 7 0 34 -20 60 -44 34 -31 46 -48
40 -58 -5 -7 -14 -26 -20 -43 -61 -161 -64 -172 -64 -244 l0 -73 -32 7 c-18 5
-90 9 -160 9 l-127 2 -39 59 c-22 33 -48 70 -60 83 -11 13 -40 76 -64 140
l-43 117 0 205 c0 198 4 240 24 240 5 0 40 -30 77 -67z m2761 -350 c28 -27 63
-66 79 -88 16 -22 32 -42 36 -45 11 -8 39 -89 63 -183 13 -49 30 -99 39 -112
19 -30 39 -186 31 -245 -12 -86 -15 -92 -43 -87 -17 3 -26 0 -29 -12 -6 -23
-178 -54 -194 -35 -5 6 -21 15 -34 18 -19 5 -28 18 -42 64 -39 130 -9 772 36
772 5 0 31 -21 58 -47z m14315 -145 c-4 -17 -2 -20 11 -15 10 4 17 2 17 -4 0
-5 11 -7 25 -3 19 5 25 2 25 -10 0 -9 5 -15 11 -13 15 3 21 -61 7 -69 -6 -4
-8 -2 -5 4 9 14 -3 43 -14 36 -5 -3 -6 1 -4 8 4 10 -4 13 -27 12 -41 -2 -88
-20 -88 -34 0 -14 33 -13 49 3 8 7 11 7 8 1 -7 -13 17 -37 40 -40 24 -4 28
-14 5 -14 -11 0 -23 4 -27 10 -3 5 -12 7 -20 3 -8 -3 -15 0 -15 7 0 7 -8 10
-20 7 -12 -3 -24 1 -30 11 -8 13 -9 11 -4 -10 5 -22 2 -28 -10 -28 -9 0 -16 6
-17 13 0 10 -2 10 -6 0 -2 -7 -12 -13 -21 -13 -11 0 -6 10 19 37 18 20 28 32
20 28 -11 -6 -13 -4 -8 7 3 9 0 21 -6 27 -8 8 -7 11 6 11 9 0 17 5 17 11 0 5
-5 7 -12 3 -7 -5 -8 -3 -4 5 9 14 37 26 65 28 14 1 17 -3 13 -19z m-22184
-489 c-2 -6 3 -14 11 -17 8 -2 11 0 8 6 -11 16 30 19 323 21 l280 2 0 -331 0
-331 -282 2 c-156 1 -291 4 -300 7 -10 2 -18 11 -18 18 0 19 -19 18 -26 -1 -4
-8 -10 -13 -15 -10 -10 7 0 37 15 47 7 5 6 8 -3 8 -11 0 -11 3 -1 15 7 8 8 15
3 15 -5 0 -10 24 -11 54 -1 46 2 55 18 59 11 3 20 11 19 19 0 10 -2 10 -6 1
-2 -7 -11 -13 -18 -13 -22 0 -17 130 4 131 13 1 12 2 -2 6 -16 4 -16 5 1 21
10 9 12 13 5 8 -16 -10 -14 -18 -17 89 -2 55 2 93 8 97 7 5 7 8 -1 8 -7 0 -13
5 -13 11 0 5 5 7 10 4 13 -8 13 1 0 26 -6 11 -8 24 -5 29 8 13 16 13 13 -1z
m22302 -319 l0 -330 -325 0 -325 0 0 330 0 330 325 0 325 0 0 -330z m-1429
311 c6 10 9 11 9 2 0 -7 7 -13 16 -13 8 0 13 4 10 8 -2 4 4 9 15 9 11 1 17 -3
13 -8 -8 -14 38 -7 48 6 5 6 15 5 29 -3 11 -8 18 -9 14 -3 -4 7 5 11 25 11 22
0 29 -4 24 -12 -6 -10 -5 -10 7 -1 10 8 77 12 215 13 l200 0 2 -141 c2 -132 1
-140 -16 -128 -14 11 -15 11 -5 0 6 -7 9 -21 6 -30 -4 -14 -3 -14 6 -1 9 12
11 10 11 -12 0 -16 -4 -28 -8 -28 -5 0 -9 -7 -9 -15 0 -8 4 -15 9 -15 11 0 10
-37 -2 -45 -5 -3 -6 -13 -3 -23 6 -15 5 -16 -12 -2 -14 11 -17 11 -11 1 5 -8
3 -17 -5 -22 -12 -7 -11 -9 1 -9 12 -1 11 -3 -3 -14 -10 -8 -18 -18 -17 -22 1
-5 -4 -10 -11 -13 -7 -2 -10 2 -6 12 4 11 -1 14 -23 13 -28 -2 -46 15 -41 38
1 5 -6 17 -15 27 -9 10 -13 22 -10 27 3 5 -2 16 -12 23 -14 11 -15 11 -5 0 14
-16 6 -41 -14 -41 -10 0 -13 7 -9 23 3 12 3 16 0 10 -3 -7 -16 -13 -29 -13
-12 0 -25 -7 -29 -15 -3 -9 0 -15 10 -15 8 0 12 5 9 10 -3 6 1 10 9 10 19 0
19 -1 5 -37 -10 -25 -12 -26 -18 -9 -5 12 -10 16 -14 9 -4 -6 0 -18 8 -27 9
-8 15 -18 15 -21 -1 -4 2 -10 6 -13 4 -4 4 -2 0 5 -3 6 -2 14 4 18 6 4 8 11 5
16 -4 5 -1 9 4 9 6 0 10 3 9 8 -2 4 2 8 7 9 6 1 9 -6 7 -15 -2 -12 -1 -14 6
-4 6 10 15 7 35 -12 15 -14 27 -31 27 -38 -1 -8 -5 -7 -14 5 -12 16 -14 16
-20 2 -3 -9 -2 -13 3 -10 5 3 12 1 16 -5 4 -6 -5 -10 -20 -10 -25 0 -25 -1 -9
-17 15 -16 17 -16 29 0 7 9 21 17 31 17 16 0 16 2 4 10 -8 5 -11 12 -7 17 15
15 26 -21 12 -37 -8 -9 -13 -26 -10 -38 3 -17 -1 -22 -16 -22 -24 0 -16 -18
15 -30 15 -6 16 -9 5 -9 -9 -1 -22 6 -29 14 -7 8 -16 13 -20 10 -4 -3 -11 2
-14 11 -5 12 -2 15 9 10 9 -3 13 -2 10 4 -3 5 0 7 8 4 18 -6 32 12 17 21 -5 3
-10 2 -10 -4 0 -14 -30 -7 -41 10 -5 8 -9 10 -9 4 0 -5 -5 -3 -11 5 -9 12 -10
12 -5 -3 3 -10 1 -28 -5 -39 -14 -25 -4 -35 17 -17 14 12 16 11 13 -5 -3 -14
-15 -19 -54 -21 -27 -1 -40 0 -28 2 22 4 41 33 22 33 -6 0 -7 5 -3 12 4 6 3 8
-4 4 -5 -3 -12 -3 -15 1 -2 5 -2 2 -1 -4 2 -7 -1 -13 -5 -13 -5 0 -17 -3 -27
-7 -13 -5 -15 -3 -9 8 5 8 -4 2 -20 -13 -29 -29 -45 -35 -45 -17 0 5 5 7 12 3
7 -4 8 -3 4 4 -4 6 -13 9 -21 6 -8 -4 -12 -10 -9 -15 6 -10 -19 -12 -29 -2 -4
3 0 16 8 29 12 19 12 23 0 28 -10 4 -15 -1 -15 -17 0 -12 -5 -29 -10 -37 -8
-12 -10 -11 -10 8 0 15 -6 22 -20 22 -12 0 -20 -7 -20 -17 0 -12 -8 -18 -25
-19 -16 -1 -22 2 -18 10 5 8 3 8 -8 -1 -8 -6 -31 -11 -52 -11 l-39 0 4 64 c2
35 0 64 -3 64 -3 0 -6 18 -6 39 0 31 5 42 24 52 12 7 23 17 23 23 0 6 -5 5
-12 -2 -30 -30 -54 6 -25 37 10 11 10 13 0 7 -9 -5 -13 2 -13 22 0 21 6 31 20
35 11 3 23 1 26 -4 3 -5 1 -9 -5 -9 -6 0 -8 -7 -5 -15 5 -12 10 -13 19 -5 11
9 11 16 0 37 -8 15 -21 28 -30 29 -8 1 -13 -2 -10 -6 3 -5 1 -11 -4 -14 -21
-13 -19 27 2 48 12 12 21 27 21 34 -1 7 -2 19 -3 28 0 8 -5 13 -10 10 -12 -8
-34 20 -27 33 4 5 2 12 -4 16 -11 7 -9 33 3 53 5 7 4 12 -2 12 -6 0 -11 12
-10 28 0 15 3 21 6 13 5 -11 7 -11 14 0z m-14744 -76 c56 -33 73 -68 73 -149
0 -57 -4 -69 -32 -107 -18 -23 -58 -56 -88 -73 -72 -40 -160 -42 -234 -7 -61
30 -86 70 -86 139 0 107 69 182 168 182 39 0 61 6 79 20 34 27 67 25 120 -5z
m2268 -115 c20 -27 40 -50 45 -50 16 0 19 -32 5 -58 -17 -30 -50 -72 -59 -72
-3 0 -19 20 -36 45 l-31 46 12 69 c8 39 16 70 20 70 4 0 24 -22 44 -50z
m-1381 -30 c106 -54 203 -111 252 -147 17 -13 34 -23 39 -23 15 0 83 -60 107
-97 15 -21 32 -65 38 -98 6 -33 32 -99 56 -147 25 -49 44 -101 44 -119 l0 -32
-56 6 c-60 6 -170 30 -249 54 -39 12 -264 111 -343 151 -8 4 -24 33 -37 65
-13 31 -33 69 -44 83 -12 15 -21 32 -21 40 0 7 -11 26 -25 42 -14 17 -25 34
-25 39 0 5 11 20 25 33 14 13 25 27 25 32 0 4 16 30 35 57 19 27 40 63 46 80
6 17 16 31 23 31 6 0 56 -22 110 -50z m-2314 4 c41 -10 84 -13 116 -9 l51 6
12 -61 c13 -65 74 -192 120 -250 15 -19 31 -44 34 -54 7 -18 3 -19 -70 -13
-43 3 -123 16 -178 28 -55 12 -123 25 -150 29 -47 7 -172 46 -240 75 -16 7
-41 16 -55 20 -14 4 -48 18 -77 31 -28 13 -56 24 -62 24 -23 0 -61 24 -61 39
0 9 15 24 33 35 71 41 144 74 177 80 19 3 62 13 95 20 80 19 176 19 255 0z
m3319 -160 c96 -27 119 -43 163 -113 42 -67 45 -84 36 -186 -4 -48 -23 -85
-43 -85 -8 0 -29 -9 -47 -20 -24 -15 -43 -18 -73 -14 -74 11 -205 59 -205 75
0 5 -13 15 -29 24 -20 10 -40 36 -60 77 -45 94 -46 155 -2 199 23 23 39 29 73
29 24 1 54 7 68 15 32 19 51 18 119 -1z m1321 3 c0 -2 -31 -25 -70 -51 -38
-27 -70 -51 -70 -55 0 -4 -11 -13 -25 -19 -24 -11 -26 -9 -50 38 -14 27 -25
53 -25 58 0 5 28 14 63 19 60 10 177 16 177 10z m-525 -146 c61 -24 74 -34
100 -76 27 -44 30 -56 30 -134 0 -75 -4 -93 -29 -138 -36 -68 -83 -97 -151
-97 -101 1 -147 26 -214 113 -22 29 -26 45 -26 100 0 79 23 131 91 209 41 47
49 52 87 52 23 0 74 -13 112 -29z m-351 -409 c112 -76 116 -185 10 -282 -28
-25 -48 -34 -85 -38 -64 -6 -92 2 -134 40 -62 54 -80 117 -54 185 13 36 101
120 131 126 41 8 92 -4 132 -31z m-504 -144 c23 0 40 -5 40 -12 0 -6 16 -24
36 -41 26 -23 37 -40 40 -70 6 -40 1 -51 -72 -187 -9 -15 -48 -57 -87 -93
-106 -97 -171 -107 -241 -39 -71 69 -72 154 -3 275 36 62 53 81 112 121 63 42
107 60 128 50 4 -2 25 -4 47 -4z m-4745 -26 c136 -33 178 -44 235 -62 l55 -17
-3 -61 c-5 -79 11 -153 59 -272 21 -54 39 -100 39 -104 0 -3 -21 -6 -47 -6
-27 -1 -59 -7 -73 -15 -36 -21 -125 -18 -205 6 -39 11 -92 27 -120 35 -27 7
-79 29 -115 48 -245 127 -286 149 -290 156 -3 4 -41 35 -85 68 -144 107 -189
172 -125 180 14 2 47 10 73 18 131 43 218 54 372 49 99 -3 177 -11 230 -23z
m3057 -12 c22 -16 47 -30 55 -30 18 0 17 -7 -9 -43 -20 -29 -23 -48 -30 -207
-12 -297 -30 -414 -87 -560 -21 -56 -126 -220 -141 -220 -4 0 -10 26 -13 58
-3 31 -29 203 -56 382 -28 178 -51 337 -51 351 0 22 6 29 30 34 16 4 45 17 65
31 20 13 40 24 45 24 19 0 100 103 121 155 12 30 24 55 26 55 2 0 22 -13 45
-30z m2473 4 c18 -12 36 -14 62 -10 106 19 141 18 189 -5 47 -24 57 -39 74
-113 14 -64 -17 -171 -61 -207 -36 -31 -142 -69 -190 -69 -38 0 -127 35 -162
63 -35 29 -71 124 -58 152 6 11 20 43 31 72 12 28 30 59 41 69 10 9 19 28 19
41 0 27 20 30 55 7z m627 -78 c117 -46 295 -106 313 -106 25 0 174 -83 234
-130 28 -22 69 -64 91 -93 23 -28 47 -59 53 -67 15 -19 37 -68 37 -82 0 -8
-35 -9 -117 -5 -127 6 -252 27 -348 58 -33 11 -74 24 -92 30 -33 10 -145 77
-218 129 l-40 28 0 99 c0 54 -4 113 -9 131 -8 29 -6 32 13 32 11 0 49 -11 83
-24z m-992 -231 c0 -8 14 -17 33 -20 41 -8 79 -62 107 -154 37 -117 20 -233
-46 -313 -64 -77 -141 -97 -206 -53 -104 71 -137 257 -69 401 18 38 43 72 65
89 20 15 36 36 36 46 0 15 8 19 40 19 28 0 40 -4 40 -15z m-985 -91 c7 -58 13
-73 49 -118 50 -61 130 -116 168 -116 85 0 -31 -105 -167 -152 -195 -68 -226
-73 -415 -71 -196 2 -303 18 -308 45 -5 28 85 153 142 197 28 22 71 58 96 81
25 22 59 47 75 54 17 8 40 23 51 34 39 37 129 82 195 96 110 24 106 26 114
-50z m1454 -264 l74 -16 19 -74 c40 -160 50 -257 44 -422 -6 -144 -21 -303
-32 -320 -10 -16 -36 7 -60 55 -14 29 -29 54 -33 57 -14 9 -93 143 -135 230
-15 30 -45 87 -66 125 -22 39 -40 80 -40 92 0 12 16 55 35 95 20 40 43 98 51
128 9 30 17 61 20 68 3 9 11 11 26 6 13 -4 56 -15 97 -24z m-4425 -115 c75
-32 100 -137 53 -226 -45 -84 -133 -116 -234 -85 -40 13 -59 25 -74 49 -21 36
-25 97 -8 130 18 35 101 121 129 134 36 16 92 16 134 -2z m5998 -293 c51 -55
57 -98 28 -183 -12 -37 -32 -84 -44 -106 -19 -33 -26 -38 -56 -37 -19 1 -53 7
-75 13 -22 6 -71 11 -108 11 -66 0 -104 11 -119 34 -16 23 -8 98 12 126 11 16
27 45 35 64 30 71 143 129 235 122 48 -4 59 -10 92 -44z m-841 -36 c50 -24
166 -131 193 -180 41 -71 40 -98 -2 -179 -71 -134 -116 -255 -116 -312 -1 -29
-4 -56 -7 -60 -4 -3 -26 -3 -50 1 -46 8 -55 15 -160 131 -156 174 -209 450
-106 562 55 60 166 77 248 37z m-3740 -70 c40 -169 128 -236 241 -183 51 24
93 59 123 102 13 20 14 20 67 1 86 -30 228 -116 294 -177 34 -31 71 -60 83
-64 11 -3 21 -14 21 -23 0 -15 -19 -17 -197 -17 -188 0 -203 -1 -303 -29 -58
-16 -114 -29 -125 -28 -11 1 -42 4 -68 8 -37 5 -59 1 -100 -16 -73 -32 -186
-25 -317 19 -52 18 -99 36 -104 42 -6 5 -19 9 -29 9 -21 0 -105 48 -137 78
-18 17 -17 21 25 127 25 61 45 120 45 131 0 30 17 41 85 53 94 17 112 18 252
18 l132 0 12 -51z m1372 -167 c52 -28 70 -58 94 -162 70 -305 74 -361 28 -414
-33 -39 -85 -37 -153 5 -29 17 -57 32 -62 32 -5 0 -34 15 -63 34 -50 32 -107
98 -107 124 0 7 -9 29 -20 49 -31 58 -28 154 8 223 24 48 35 59 91 88 69 34
142 43 184 21z m-3607 -30 c21 -17 130 -39 190 -39 l62 0 4 -132 c5 -122 3
-136 -16 -173 -14 -25 -29 -41 -44 -43 -12 -2 -22 -7 -22 -12 0 -8 -57 -30
-215 -84 -44 -15 -130 -45 -190 -66 -61 -22 -130 -42 -154 -46 l-44 -7 8 39
c4 21 11 64 15 95 9 64 33 114 101 216 27 40 49 76 49 80 0 12 60 49 104 64
40 15 93 68 102 106 6 21 23 22 50 2z m4427 -148 c54 -25 77 -70 77 -149 0
-69 -23 -122 -85 -200 -50 -64 -90 -94 -155 -116 -130 -45 -235 13 -235 129 1
89 54 221 109 267 12 10 38 21 58 24 20 4 39 13 42 21 8 20 64 42 109 43 21 0
57 -9 80 -19z m-7414 -96 c-2 -85 -2 -86 -22 -68 -14 13 -18 13 -12 3 7 -12 6
-13 -6 -4 -22 17 -51 14 -44 -5 4 -14 4 -14 -7 -1 -7 9 -20 14 -30 12 -9 -2
-19 2 -23 9 -5 8 -1 9 14 4 16 -5 20 -3 15 9 -3 9 -10 17 -15 17 -5 1 -15 2
-21 3 -7 1 -22 -1 -33 -5 -23 -8 -61 14 -51 30 4 5 -7 18 -24 27 -32 20 -37
29 -17 38 6 2 3 4 -8 3 -11 -2 -27 -7 -35 -12 -13 -7 -13 -6 -2 7 10 13 40 16
168 17 l155 2 -2 -86z m21671 -15 c0 -108 -7 -123 -49 -100 -12 6 -21 7 -20 3
1 -4 1 -15 0 -23 -1 -13 -2 -13 -11 0 -5 8 -20 15 -34 15 -13 1 -33 8 -43 15
-15 12 -16 12 -5 0 6 -8 12 -19 12 -25 0 -5 -8 2 -18 18 -10 15 -22 24 -25 20
-9 -8 -47 -12 -44 -4 1 3 -6 17 -16 31 -9 13 -17 20 -17 14 0 -5 3 -14 8 -20
4 -5 -4 2 -17 15 l-24 25 8 -24 c4 -14 12 -26 16 -28 5 -2 9 -8 9 -13 0 -6 -4
-8 -9 -5 -5 4 -11 3 -14 -1 -2 -5 -2 -3 -1 4 3 11 -17 23 -39 23 -8 0 -7 -3 1
-9 11 -7 11 -9 -1 -14 -12 -4 -14 0 -11 17 3 17 -1 25 -16 29 -11 3 -20 0 -20
-6 0 -7 -4 -6 -9 2 -7 12 -10 11 -14 -5 -2 -10 -3 -7 -2 8 1 20 -4 30 -18 34
-14 4 -16 8 -7 14 7 4 0 7 -17 6 -26 -1 -28 -4 -25 -31 2 -24 1 -27 -8 -13 -7
11 -24 17 -53 17 -56 0 -80 5 -85 19 -2 7 -7 10 -12 7 -5 -3 -8 15 -8 40 l0
45 319 0 319 0 0 -100z m-11479 15 c115 -55 101 -281 -21 -342 -59 -31 -160
-32 -207 -3 -18 11 -33 26 -33 33 0 8 -9 22 -20 32 -24 21 -25 39 -6 93 8 22
17 69 20 103 3 35 11 68 18 75 37 36 183 41 249 9z m-5975 -26 c56 -20 63 -26
87 -73 14 -28 37 -71 51 -96 38 -70 67 -192 73 -298 4 -83 0 -120 -27 -252
-18 -85 -36 -175 -41 -200 -16 -78 -53 -160 -90 -201 -33 -36 -39 -39 -64 -29
-40 15 -97 67 -115 104 -8 17 -29 51 -46 76 -36 53 -114 201 -114 217 0 6 -14
42 -31 80 -45 98 -89 228 -89 261 0 25 7 31 58 52 31 13 72 35 90 49 39 31
122 139 122 159 0 8 10 44 21 81 12 36 23 72 25 79 5 17 20 15 90 -9z m5382 1
c31 -11 32 -14 32 -64 0 -70 -28 -112 -102 -150 -48 -24 -64 -27 -103 -22 -25
4 -57 17 -71 29 -25 22 -25 24 -15 83 6 34 20 80 31 103 l21 41 87 -4 c48 -3
102 -10 120 -16z m-3577 -145 c32 -8 69 -12 83 -9 14 2 26 0 26 -6 0 -11 -29
-25 -74 -35 -17 -3 -57 -35 -100 -79 -70 -70 -73 -75 -84 -142 -7 -38 -14 -94
-15 -124 l-2 -55 -110 3 c-228 6 -448 34 -653 84 l-93 23 65 55 c36 29 66 57
66 61 0 4 17 15 38 24 20 10 56 31 80 47 52 36 206 108 229 108 9 0 47 9 84
20 162 48 328 57 460 25z m3128 -231 c17 -14 31 -32 31 -39 0 -16 66 -75 83
-75 27 0 33 -20 26 -79 -11 -93 -99 -215 -189 -261 -46 -24 -128 -27 -168 -6
-73 38 -88 90 -61 218 23 108 31 123 117 206 76 72 109 80 161 36z m-2743 -86
c27 -14 61 -30 77 -36 32 -13 33 -22 10 -103 -14 -51 -15 -69 -5 -117 28 -137
-49 -221 -204 -222 -63 0 -76 3 -113 30 -52 38 -107 123 -121 187 -13 57 -5
123 21 174 18 37 91 94 139 110 45 15 144 3 196 -23z m594 -22 c89 -59 92
-154 6 -244 -54 -58 -121 -80 -196 -63 -52 12 -94 51 -116 108 -37 95 19 182
146 227 37 13 120 -1 160 -28z m2828 -5 c20 -10 53 -41 72 -67 34 -48 35 -51
35 -149 0 -111 -13 -148 -64 -184 -56 -41 -126 -19 -192 60 -33 39 -45 66 -66
148 -17 67 -23 112 -19 135 6 33 9 35 64 45 49 10 121 26 130 30 1 0 20 -8 40
-18z m595 -69 c23 -21 85 -68 137 -104 52 -36 110 -80 129 -97 19 -17 40 -31
46 -31 18 0 210 -197 228 -233 20 -43 37 -99 37 -123 -1 -11 -18 -31 -42 -48
-40 -27 -46 -28 -129 -24 -63 3 -93 9 -106 20 -10 9 -47 23 -83 32 -64 15
-235 95 -255 119 -5 7 -43 37 -83 67 -55 42 -76 65 -88 97 -11 28 -24 43 -40
47 -23 6 -24 10 -26 96 -1 50 -2 102 -2 116 -1 22 6 28 50 43 27 9 66 27 85
39 52 33 92 29 142 -16z m-2862 -25 c82 -38 119 -98 119 -197 0 -81 -18 -126
-72 -176 -83 -79 -168 -85 -266 -18 -72 49 -104 107 -105 191 0 57 27 143 46
143 5 0 20 9 34 20 17 13 41 20 72 20 25 1 57 7 71 15 30 17 66 18 101 2z
m1062 -179 c8 -95 31 -160 80 -230 22 -32 37 -64 34 -71 -3 -8 -38 -31 -79
-52 -40 -21 -77 -41 -83 -45 -27 -20 -163 -60 -241 -71 -92 -12 -230 -7 -341
13 -78 14 -80 24 -21 122 86 146 267 300 433 369 77 32 88 34 156 36 l56 1 6
-72z m858 -130 c11 -24 33 -65 49 -93 35 -60 36 -69 10 -120 -18 -36 -20 -51
-14 -173 7 -123 5 -141 -21 -250 -44 -186 -122 -392 -148 -392 -7 0 -21 17
-32 39 -114 223 -124 248 -135 326 -7 44 -23 139 -36 211 -14 73 -27 160 -30
195 l-5 64 101 65 c55 36 124 88 153 116 29 29 60 52 70 53 12 1 25 -14 38
-41z m-2403 -229 c3 -77 0 -112 -13 -144 -19 -50 -88 -125 -116 -125 -10 0
-21 -4 -24 -10 -8 -13 -86 -13 -122 1 -38 14 -71 46 -96 94 -23 44 -28 140
-12 248 6 48 11 57 24 51 9 -3 70 -9 136 -11 93 -4 128 -2 155 10 55 23 64 7
68 -114z m2972 -22 c-74 -70 -211 -191 -219 -195 -13 -5 7 121 21 129 7 5 24
9 37 9 30 0 132 54 162 86 12 13 30 24 38 24 10 0 -6 -21 -39 -53z m-3754 -8
c28 -17 36 -17 83 -5 28 7 53 10 55 7 2 -3 7 -24 11 -46 4 -22 18 -51 32 -65
55 -55 71 -127 40 -186 -18 -34 -75 -94 -91 -94 -6 -1 -42 -27 -80 -60 -85
-73 -186 -124 -308 -154 -141 -35 -158 -38 -158 -22 0 46 161 436 205 498 20
27 40 69 43 91 7 37 12 44 42 54 41 13 83 7 126 -18z"/>
<path d="M14245 15969 c-65 -9 -186 -57 -250 -100 -22 -14 -55 -34 -73 -45
-34 -20 -139 -149 -171 -212 -31 -60 -55 -171 -56 -252 0 -137 41 -230 155
-347 55 -57 91 -85 116 -92 20 -6 44 -16 53 -24 21 -18 151 -63 225 -78 113
-22 255 -6 340 38 52 27 110 73 129 103 24 38 32 118 17 164 -35 106 -160 164
-263 121 -45 -19 -188 -19 -240 -1 -50 18 -106 62 -118 93 -13 35 4 90 43 141
44 57 111 77 218 67 167 -17 211 -4 268 83 32 47 37 64 37 111 0 76 -47 151
-114 185 -83 42 -213 60 -316 45z"/>
<path d="M18155 15045 c-206 -19 -479 -50 -805 -91 -151 -19 -291 -34 -312
-34 -46 0 -243 -28 -531 -75 -251 -41 -307 -62 -351 -128 -21 -34 -26 -53 -26
-108 0 -37 4 -79 9 -92 23 -59 129 -127 200 -127 22 0 138 16 258 36 120 19
261 39 313 44 52 4 240 26 417 49 558 72 762 92 963 98 207 6 232 11 288 58
58 49 82 97 82 164 0 50 -5 66 -32 107 -19 27 -54 61 -81 78 -42 26 -57 29
-145 32 -53 2 -164 -3 -247 -11z"/>
<path d="M10656 14986 c-123 -46 -171 -192 -102 -310 51 -86 80 -93 524 -116
240 -12 501 -39 672 -70 63 -11 128 -20 144 -20 75 0 405 -89 490 -132 30 -15
59 -20 122 -20 110 0 142 19 185 108 27 56 31 72 26 117 -4 28 -16 64 -27 79
-11 15 -20 31 -20 36 0 25 -133 95 -234 123 -305 85 -497 126 -701 149 -55 6
-154 17 -220 25 -187 22 -381 35 -610 41 -169 4 -217 2 -249 -10z"/>
<path d="M16402 14158 c-140 -48 -189 -238 -88 -347 60 -64 87 -70 316 -71
113 0 338 -7 500 -15 374 -18 532 -43 737 -117 140 -50 204 -43 286 31 73 66
89 173 37 254 -37 58 -116 111 -195 131 -33 8 -102 26 -153 40 -112 31 -279
61 -462 82 -173 20 -928 29 -978 12z"/>
<path d="M12005 14143 c-276 -32 -595 -101 -943 -202 -156 -45 -201 -72 -232
-136 -70 -145 31 -304 195 -305 27 0 108 15 180 34 587 155 748 186 967 186
139 0 178 16 231 97 33 49 37 63 37 118 0 59 -3 67 -45 123 -59 79 -97 93
-249 91 -61 -1 -124 -4 -141 -6z"/>
<path d="M14060 13909 c-85 -4 -243 -15 -350 -23 -107 -9 -222 -18 -255 -21
-132 -10 -237 -26 -274 -41 -65 -26 -131 -125 -131 -196 0 -35 36 -118 67
-154 51 -61 156 -68 455 -34 555 63 911 64 1563 6 589 -53 636 -53 699 3 38
34 76 116 76 164 0 86 -70 178 -153 201 -123 34 -204 48 -324 56 -70 5 -168
14 -218 20 -268 30 -773 38 -1155 19z"/>
</g>
</svg>
