<?xml version="1.0" standalone="no"?>
<!DOCTYPE svg PUBLIC "-//W3C//DTD SVG 20010904//EN"
 "http://www.w3.org/TR/2001/REC-SVG-20010904/DTD/svg10.dtd">
<svg version="1.0" xmlns="http://www.w3.org/2000/svg"
 width="3000.000000pt" height="3000.000000pt" viewBox="0 0 3000.000000 3000.000000"
 preserveAspectRatio="xMidYMid meet">
<metadata>
Created by potrace 1.16, written by Peter Selinger 2001-2019
</metadata>
<g transform="translate(0.000000,3000.000000) scale(0.100000,-0.100000)"
fill="#000000" stroke="none">
<path d="M14980 26444 c-101 -6 -340 -34 -390 -46 -91 -21 -252 -80 -315 -116
-36 -20 -101 -70 -144 -110 -91 -83 -125 -142 -144 -250 -12 -64 -13 -67 -42
-70 -75 -7 -477 -66 -635 -93 -313 -53 -402 -71 -622 -125 -119 -30 -223 -54
-231 -54 -16 0 -118 -31 -337 -102 -85 -27 -171 -55 -190 -60 -43 -13 -249
-93 -307 -119 -23 -10 -49 -19 -58 -19 -9 0 -86 -34 -172 -75 -85 -41 -159
-75 -164 -75 -11 0 -196 -98 -232 -122 -15 -11 -39 -23 -55 -27 -15 -5 -74
-39 -132 -76 -58 -38 -126 -80 -152 -94 -26 -14 -57 -35 -70 -46 -30 -27 -115
-85 -123 -85 -3 0 -27 -18 -53 -40 -26 -21 -86 -70 -133 -107 -241 -190 -469
-421 -633 -642 -44 -58 -83 -108 -87 -111 -4 -3 -21 -33 -38 -67 -17 -34 -37
-67 -44 -75 -23 -23 -103 -191 -130 -273 -50 -154 -58 -284 -22 -355 18 -34
32 -183 45 -465 15 -337 60 -662 129 -929 46 -175 54 -195 121 -312 27 -48 50
-95 50 -105 0 -26 47 -77 91 -99 21 -11 58 -20 82 -20 l45 0 6 -57 c10 -92 75
-489 96 -593 26 -127 50 -228 93 -390 47 -179 50 -205 32 -270 -32 -117 -11
-197 70 -266 54 -47 71 -81 85 -174 4 -25 19 -88 33 -140 79 -294 107 -417
117 -528 5 -54 14 -143 20 -199 12 -109 10 -396 -2 -409 -5 -4 -55 1 -113 11
-217 37 -365 8 -583 -114 -129 -73 -320 -288 -395 -444 -98 -203 -122 -309
-122 -537 0 -169 1 -178 29 -255 16 -44 49 -111 73 -148 24 -37 43 -72 43 -77
0 -18 186 -192 226 -211 23 -11 51 -29 62 -39 26 -25 176 -98 222 -109 19 -5
77 -20 129 -35 52 -14 120 -28 152 -32 58 -6 59 -7 59 -38 0 -18 -18 -128 -40
-246 -22 -118 -45 -246 -51 -285 -5 -38 -19 -121 -30 -183 -17 -95 -19 -121
-9 -161 22 -94 105 -161 199 -161 44 0 55 5 105 46 31 25 63 59 72 76 25 49
63 238 124 623 11 72 36 220 55 330 19 110 37 225 40 255 3 30 10 78 15 105 6
28 14 97 19 155 5 58 24 213 41 345 34 259 33 254 55 490 32 337 36 387 46
639 13 346 2 489 -62 811 -21 105 -43 199 -59 250 -13 41 -28 154 -22 160 3 3
33 5 66 5 56 0 101 8 314 54 100 22 118 21 356 -19 116 -19 222 -35 238 -35
16 0 217 -34 449 -75 231 -41 432 -75 447 -75 15 0 149 -20 297 -45 448 -74
650 -105 688 -105 20 0 162 -18 314 -40 429 -61 817 -110 870 -110 56 0 661
-74 668 -82 3 -3 0 -62 -7 -132 -19 -203 13 -547 77 -821 14 -60 30 -136 36
-167 19 -115 176 -530 229 -608 10 -14 32 -54 50 -90 34 -67 95 -163 136 -213
13 -15 30 -42 39 -60 8 -18 44 -63 80 -102 36 -38 65 -75 65 -82 0 -6 19 -26
43 -44 23 -18 62 -52 87 -75 25 -24 67 -53 93 -64 27 -12 57 -30 68 -41 25
-25 174 -108 208 -115 14 -3 49 -14 78 -25 131 -47 408 -101 583 -114 164 -13
307 16 567 113 102 38 171 73 245 124 32 21 66 41 75 45 10 3 43 29 74 57 195
179 263 242 270 251 4 6 33 39 64 73 80 90 77 86 163 197 42 55 84 112 92 126
22 38 117 182 129 196 6 7 11 17 11 23 0 6 22 50 49 98 49 87 79 149 121 252
13 30 43 102 67 160 24 58 53 138 64 179 38 143 27 133 180 165 382 78 891
217 1029 279 43 19 186 73 222 84 13 4 19 -4 27 -34 10 -39 31 -184 51 -353 6
-52 20 -160 31 -240 20 -156 38 -319 66 -610 26 -270 26 -1213 0 -1440 -32
-288 -39 -335 -69 -505 -16 -93 -33 -199 -38 -235 -9 -64 -71 -321 -89 -370
-5 -14 -21 -70 -36 -125 -30 -112 -88 -281 -135 -395 -17 -41 -39 -95 -47
-120 -21 -62 -182 -387 -208 -420 -14 -18 -85 -140 -85 -146 0 -9 -92 -147
-112 -168 -11 -11 -26 -35 -34 -52 -7 -17 -45 -68 -83 -114 -39 -46 -71 -89
-71 -96 0 -7 -6 -17 -14 -21 -7 -4 -61 -63 -119 -130 -58 -66 -126 -135 -150
-152 -23 -18 -67 -59 -97 -93 -57 -65 -232 -209 -284 -233 -17 -8 -56 -35 -86
-61 -30 -25 -75 -57 -100 -72 -25 -14 -47 -29 -50 -32 -3 -3 -36 -28 -75 -55
-38 -27 -74 -55 -78 -62 -4 -7 -14 -13 -22 -13 -14 0 -88 -43 -133 -77 -22
-17 -232 -130 -357 -192 -60 -30 -353 -154 -410 -173 -16 -6 -50 -20 -75 -31
-129 -57 -296 -127 -306 -127 -7 0 -40 -13 -75 -29 -131 -59 -286 -119 -354
-135 -129 -32 -280 -67 -330 -76 -27 -5 -94 -18 -147 -29 -53 -11 -130 -22
-170 -26 -40 -3 -127 -12 -193 -20 -264 -30 -330 -36 -585 -45 -275 -11 -695
-1 -900 20 -58 6 -166 17 -240 25 -74 8 -169 17 -210 20 -41 3 -124 15 -185
26 -60 11 -135 24 -165 29 -160 27 -582 122 -695 157 -44 13 -125 38 -180 54
-167 50 -246 76 -335 109 -47 18 -112 42 -145 53 -76 26 -227 87 -240 97 -5 4
-50 24 -100 45 -49 20 -135 61 -190 90 -55 29 -125 66 -155 80 -52 26 -149 83
-160 95 -13 13 -72 51 -92 59 -13 5 -49 30 -82 57 l-58 48 68 23 c37 13 77 23
88 23 20 0 73 14 346 95 69 20 166 46 215 57 50 11 99 22 111 25 18 4 27 -8
62 -75 97 -185 275 -302 462 -302 78 0 258 51 312 88 71 49 155 142 186 207
36 74 78 228 87 316 l6 66 222 60 c122 34 242 66 267 71 25 6 76 19 115 30 59
17 77 19 112 9 61 -16 109 2 167 63 26 27 59 75 73 107 24 52 27 72 31 200 4
134 2 147 -23 225 -63 188 -155 325 -279 412 -138 97 -265 146 -376 146 -73 0
-151 -36 -182 -84 -25 -39 -50 -50 -144 -65 -57 -9 -407 -97 -481 -122 -30 -9
-37 -7 -77 23 -24 18 -59 42 -78 53 -99 59 -119 72 -142 92 -64 56 -123 67
-371 67 -124 0 -203 -18 -251 -57 -10 -9 -42 -34 -70 -55 -65 -51 -142 -159
-160 -225 -8 -29 -13 -79 -12 -112 l2 -60 -105 -27 c-57 -14 -116 -27 -131
-27 -14 -1 -100 -19 -190 -41 -236 -59 -444 -107 -513 -120 -33 -6 -86 -17
-118 -25 l-59 -14 -33 72 c-43 94 -94 244 -105 310 -5 29 -20 106 -34 172 -39
180 -72 497 -91 870 -11 202 -36 252 -143 289 -114 39 -230 -25 -263 -146 -17
-66 28 -729 62 -903 6 -27 14 -88 19 -135 14 -122 87 -393 135 -497 8 -17 15
-41 15 -53 0 -11 7 -34 15 -50 15 -28 14 -30 -5 -30 -19 0 -185 -39 -494 -115
-77 -19 -149 -35 -162 -35 -12 0 -157 -34 -322 -75 -165 -41 -309 -75 -321
-75 -12 0 -156 -34 -321 -75 -165 -41 -310 -75 -324 -75 -34 0 -139 -42 -252
-100 -54 -27 -104 -50 -111 -50 -7 0 -37 -12 -66 -26 -107 -53 -280 -124 -301
-124 -12 0 -26 -4 -32 -9 -5 -5 -74 -32 -154 -61 -80 -28 -153 -56 -162 -61
-10 -5 -41 -14 -69 -19 -28 -6 -133 -39 -233 -75 -99 -35 -197 -68 -216 -71
-19 -4 -120 -35 -225 -69 -104 -35 -215 -68 -245 -75 -85 -19 -115 -43 -151
-116 -56 -118 -56 -229 0 -379 16 -44 32 -92 35 -107 10 -46 68 -112 111 -126
63 -22 188 -8 539 58 176 33 334 60 352 60 18 0 97 11 176 24 462 79 767 104
1123 91 160 -5 213 -4 265 8 36 8 94 18 129 22 36 4 173 37 305 73 133 35 264
69 291 74 53 10 269 68 470 124 65 19 127 34 137 34 11 0 130 32 266 71 136
39 270 75 297 80 28 4 95 21 150 38 55 16 138 41 185 55 47 13 93 28 102 31
13 5 35 -11 82 -57 36 -34 83 -76 106 -92 22 -17 40 -33 40 -37 0 -4 -15 -20
-33 -35 -63 -54 -92 -79 -157 -134 -36 -30 -67 -57 -70 -61 -19 -23 -52 -28
-132 -18 -113 14 -360 5 -418 -14 -44 -15 -162 -64 -250 -104 -25 -12 -56 -26
-70 -32 -14 -6 -63 -35 -110 -65 -47 -30 -108 -66 -135 -80 -28 -14 -59 -34
-70 -44 -25 -23 -142 -102 -151 -102 -7 0 -50 -36 -124 -104 -25 -23 -71 -61
-104 -86 -32 -24 -72 -59 -89 -77 -17 -18 -36 -33 -42 -33 -5 0 -39 -27 -75
-61 -36 -33 -89 -76 -118 -96 -29 -19 -57 -43 -62 -53 -6 -10 -36 -39 -68 -64
-31 -25 -65 -58 -74 -73 -9 -15 -44 -57 -78 -93 -34 -36 -70 -81 -80 -101 -10
-19 -26 -41 -34 -48 -9 -7 -39 -45 -68 -85 -86 -116 -170 -220 -184 -229 -8
-4 -14 -13 -14 -19 0 -12 -63 -99 -104 -143 -13 -14 -31 -41 -40 -60 -9 -19
-27 -47 -40 -62 -27 -33 -116 -170 -116 -180 0 -3 -26 -49 -59 -102 -32 -53
-70 -118 -83 -146 -14 -27 -55 -109 -91 -182 -37 -72 -67 -135 -67 -140 0 -4
-18 -54 -40 -110 -51 -131 -69 -211 -77 -338 -8 -135 1 -183 43 -247 l35 -52
-54 -140 c-30 -78 -67 -181 -82 -231 -15 -49 -39 -130 -54 -180 -28 -93 -62
-229 -80 -325 -6 -30 -25 -122 -42 -205 -45 -222 -88 -529 -99 -705 -5 -85
-16 -240 -24 -345 -37 -467 -56 -963 -63 -1695 -7 -754 9 -1226 62 -1809 8
-90 20 -236 25 -325 10 -160 47 -506 94 -871 27 -207 49 -392 66 -555 11 -98
92 -695 105 -767 l6 -33 220 0 219 0 -5 23 c-11 49 -97 689 -105 782 -5 55
-24 219 -44 365 -60 449 -96 768 -107 930 -5 85 -14 193 -19 240 -17 156 -50
582 -64 855 -47 844 -21 2072 64 3110 32 391 40 453 86 733 65 400 105 580
165 757 76 224 78 228 163 408 31 65 56 121 56 125 0 7 59 89 105 147 14 17
32 46 41 65 21 45 92 138 114 150 10 5 79 14 155 20 161 13 273 3 385 -35 40
-14 82 -25 93 -25 24 0 241 -103 282 -134 17 -13 60 -38 96 -55 90 -44 338
-214 386 -263 15 -16 32 -28 39 -28 18 0 135 -112 438 -418 310 -312 382 -388
413 -439 12 -20 26 -39 31 -42 10 -6 61 -68 181 -220 36 -45 68 -81 73 -81 5
0 13 -10 17 -22 11 -27 85 -117 111 -135 10 -7 29 -32 43 -55 14 -24 53 -70
86 -102 34 -33 61 -64 61 -69 0 -4 31 -41 68 -80 38 -40 105 -112 151 -162 45
-49 108 -117 139 -150 31 -33 98 -105 147 -160 50 -54 311 -320 580 -590 270
-269 578 -582 685 -695 357 -375 641 -650 1056 -1020 40 -36 105 -95 146 -132
40 -37 91 -80 113 -97 22 -16 62 -52 90 -80 27 -28 54 -51 59 -51 5 0 42 -30
81 -67 113 -106 254 -227 275 -237 11 -5 20 -13 20 -17 0 -6 71 -69 320 -285
14 -12 48 -41 75 -64 28 -24 54 -49 58 -56 4 -8 20 -20 35 -28 15 -8 54 -40
87 -73 33 -32 78 -70 100 -85 22 -15 58 -46 80 -69 22 -23 56 -52 76 -64 19
-13 55 -42 79 -65 24 -23 65 -59 91 -79 124 -95 345 -277 357 -293 7 -10 18
-18 24 -18 10 0 79 -55 148 -117 19 -18 40 -33 46 -33 7 0 29 -17 51 -38 56
-54 130 -112 142 -112 5 0 16 -8 23 -18 7 -10 79 -71 160 -136 81 -65 149
-124 152 -132 3 -8 11 -14 17 -14 14 0 114 -83 147 -122 13 -16 29 -28 36 -28
7 0 46 -34 87 -75 40 -41 78 -75 83 -75 5 0 41 -31 80 -70 39 -38 155 -153
259 -255 103 -101 187 -189 187 -193 0 -5 30 -38 68 -74 81 -80 220 -229 241
-261 9 -13 38 -44 65 -70 l50 -47 1049 0 1050 0 -7 437 c-10 686 -37 1429 -76
2163 -11 201 -25 457 -30 570 -17 340 -30 530 -55 840 -13 162 -26 324 -28
360 -2 36 -18 184 -36 330 -18 146 -36 315 -41 375 -12 152 -54 391 -109 620
-10 44 -24 105 -31 135 -6 30 -16 78 -22 105 -6 28 -37 129 -69 225 -32 96
-65 213 -73 259 -10 53 -24 97 -40 121 -22 33 -33 40 -83 51 -77 16 -72 16
-120 -15 -98 -65 -100 -228 -8 -626 65 -282 135 -790 108 -790 -16 0 -33 17
-126 133 -52 64 -117 143 -143 173 -119 137 -274 308 -394 434 -36 38 -102
109 -147 157 -45 48 -98 104 -118 123 -19 19 -88 89 -153 154 -275 281 -760
759 -862 851 -61 55 -135 123 -163 150 -29 28 -70 64 -92 80 -21 17 -66 56
-99 88 -33 31 -64 57 -69 57 -4 0 -18 10 -30 23 -12 13 -83 72 -157 132 -74
60 -142 116 -150 125 -8 9 -33 28 -55 42 -22 14 -58 42 -80 63 -22 20 -62 52
-90 70 -27 18 -68 49 -90 69 -22 20 -58 49 -80 64 -74 50 -200 147 -208 159
-4 7 -13 13 -19 13 -12 0 -105 68 -148 107 -14 13 -39 30 -56 38 -17 8 -56 34
-85 58 -30 24 -92 70 -139 102 -47 32 -110 78 -141 102 -30 24 -59 43 -64 43
-4 0 -49 31 -99 68 -50 38 -103 75 -117 83 -40 21 -177 117 -184 129 -3 6 -21
16 -38 24 -18 7 -66 39 -107 70 -41 30 -90 63 -109 72 -19 9 -40 21 -45 26
-30 25 -167 118 -197 132 -19 9 -66 40 -106 70 -40 29 -89 61 -110 71 -21 10
-40 21 -43 24 -9 12 -181 123 -229 148 -25 14 -55 33 -66 43 -11 9 -53 37 -92
60 -99 59 -96 71 15 49 48 -10 103 -18 123 -19 20 0 80 -7 135 -15 133 -20
444 -52 579 -60 205 -11 201 -10 239 -68 19 -29 44 -74 56 -102 12 -27 25 -52
29 -55 4 -3 22 -32 41 -65 18 -33 44 -73 57 -88 13 -16 23 -35 23 -44 0 -8 15
-41 33 -72 18 -31 53 -103 78 -160 54 -126 87 -162 164 -181 47 -11 65 -11
108 0 63 15 96 50 130 135 34 83 87 247 87 269 0 10 14 47 30 83 17 35 30 67
30 69 0 3 19 39 43 82 23 42 44 83 47 92 13 40 117 180 140 189 14 5 66 14
115 21 50 6 178 34 285 62 107 27 222 56 255 63 33 7 139 41 235 75 96 34 191
65 210 69 37 9 191 67 275 106 28 12 73 30 100 39 66 23 404 184 528 252 53
30 100 54 103 54 7 0 148 83 154 91 11 13 90 59 103 59 7 0 23 9 34 20 18 16
122 88 182 125 59 37 113 75 159 112 29 24 58 43 65 43 7 0 26 13 43 28 16 16
92 75 169 132 77 57 144 109 148 116 4 8 22 20 40 29 18 8 66 44 107 80 41 35
80 64 86 65 7 0 27 14 45 31 52 49 140 119 149 119 4 0 44 37 89 82 l82 81
160 -159 c88 -87 166 -164 172 -170 64 -62 272 -282 395 -416 84 -93 157 -168
163 -168 5 0 9 -5 9 -11 0 -6 69 -84 153 -174 215 -230 282 -304 315 -350 16
-22 44 -53 62 -70 17 -16 50 -56 72 -87 23 -32 44 -58 48 -58 4 0 37 -37 73
-82 121 -153 258 -323 288 -358 16 -19 43 -55 59 -80 16 -25 43 -61 60 -80 17
-19 43 -55 58 -80 14 -25 41 -63 59 -85 45 -53 81 -133 99 -215 7 -37 40 -144
73 -236 33 -93 65 -189 71 -214 11 -41 52 -179 100 -335 24 -80 56 -207 68
-275 6 -30 33 -158 61 -285 28 -126 57 -275 66 -330 8 -55 38 -239 65 -410 66
-417 100 -654 100 -708 0 -25 9 -121 20 -214 60 -509 99 -1108 120 -1833 24
-866 20 -3703 -7 -4187 l-6 -113 215 0 216 0 6 133 c31 617 43 1920 27 3042
-19 1396 -42 1958 -107 2650 -14 149 -29 326 -34 395 -10 137 -62 516 -116
842 -19 115 -34 224 -34 242 0 39 -40 253 -105 562 -25 116 -45 220 -45 232 0
24 -74 302 -120 453 -17 53 -30 104 -30 113 0 10 -18 70 -40 133 l-40 116 38
44 c20 24 69 79 108 121 40 42 101 109 137 147 36 39 100 108 142 155 149 165
251 274 303 327 28 30 52 58 52 63 0 5 9 11 19 15 11 3 21 12 23 20 3 12 58
75 235 263 39 43 83 90 96 105 l25 28 42 -41 c22 -22 44 -40 48 -40 4 0 16
-14 27 -30 11 -16 24 -30 29 -30 5 0 18 -10 30 -22 24 -25 202 -191 254 -236
18 -16 48 -37 67 -48 19 -10 35 -24 35 -30 0 -6 20 -31 45 -56 25 -25 45 -51
45 -57 0 -6 7 -11 15 -11 8 0 15 -5 15 -11 0 -6 11 -20 25 -31 14 -11 25 -24
25 -30 0 -5 15 -26 33 -45 17 -19 44 -48 60 -65 15 -16 27 -34 27 -39 0 -5 5
-9 10 -9 6 0 17 -15 25 -32 8 -18 14 -28 15 -23 0 6 9 -3 19 -20 11 -16 40
-52 65 -80 25 -27 46 -53 46 -58 0 -9 13 -26 50 -66 14 -15 34 -45 45 -67 11
-21 26 -43 33 -47 6 -4 12 -17 12 -27 0 -10 5 -22 10 -25 6 -3 10 -14 10 -23
0 -36 21 -91 44 -113 12 -13 26 -36 30 -52 3 -15 26 -47 49 -72 42 -43 46 -45
101 -45 86 0 153 49 276 204 65 82 90 116 90 123 0 5 12 20 26 33 69 66 101
101 110 122 6 13 22 46 37 73 79 151 121 242 133 293 7 31 24 104 38 162 48
195 52 463 11 660 -53 257 -82 358 -142 493 -24 56 -53 122 -62 147 -20 50
-126 236 -141 245 -6 4 -10 13 -10 21 0 17 -43 83 -85 129 -15 17 -39 48 -54
70 -22 34 -156 173 -247 256 -42 39 -94 99 -94 111 0 5 -4 7 -10 3 -8 -5 -98
77 -241 221 l-57 57 52 56 c28 30 69 73 91 96 22 22 44 47 50 56 27 43 91 118
101 118 6 1 23 18 36 39 14 20 54 67 89 104 35 37 80 88 99 112 19 25 40 45
45 45 6 1 21 17 34 36 13 19 27 35 32 35 5 0 9 6 9 13 1 13 45 67 55 67 8 0
51 47 83 90 24 32 81 97 186 210 22 24 74 83 115 130 90 105 200 228 263 295
26 27 71 78 99 113 29 34 56 62 60 62 5 0 20 17 33 38 13 21 53 68 90 105 36
36 66 71 66 76 0 5 30 38 66 73 36 35 74 79 86 99 11 21 30 42 42 49 11 6 39
34 61 62 22 28 71 84 110 125 38 40 74 81 79 90 5 9 30 37 55 63 45 47 151
165 161 181 3 4 12 7 20 7 44 -3 68 5 96 31 28 26 41 30 145 41 63 7 118 16
124 21 5 5 15 9 21 9 18 0 103 58 146 99 20 20 41 41 47 46 33 31 71 87 95
140 31 65 65 176 66 209 0 12 2 39 4 61 11 107 2 233 -22 295 -3 8 -6 17 -6
20 -9 39 -31 106 -37 110 -4 3 -8 21 -10 40 -2 19 -11 46 -21 59 -10 13 -18
30 -18 38 0 8 -20 40 -44 71 -23 31 -50 71 -59 88 -9 17 -42 52 -73 78 -32 26
-65 57 -73 69 -8 12 -21 26 -28 30 -7 5 -11 12 -8 17 3 4 -9 13 -26 19 -16 6
-53 30 -82 55 -29 24 -65 48 -80 52 -16 3 -31 12 -33 19 -3 7 -23 16 -46 19
-38 6 -196 46 -266 68 -18 5 -57 12 -87 15 -30 3 -55 9 -55 13 0 4 -10 6 -22
5 -13 -2 -63 3 -112 11 -49 7 -93 11 -96 9 -4 -2 -30 -1 -59 4 -28 4 -54 4
-57 0 -3 -5 -20 -9 -39 -9 -19 0 -37 -5 -40 -11 -4 -5 -14 -8 -23 -7 -10 2
-44 -10 -77 -28 -33 -17 -91 -48 -128 -68 -38 -20 -67 -36 -64 -36 2 0 -30
-35 -72 -78 -58 -58 -82 -90 -96 -130 -10 -28 -21 -52 -24 -52 -9 0 -6 -191 3
-228 7 -29 4 -38 -20 -63 -15 -16 -32 -29 -36 -29 -14 0 -88 -82 -88 -97 0 -7
-6 -23 -12 -36 -22 -38 -109 -147 -118 -147 -5 0 -37 -36 -70 -80 -33 -44 -64
-80 -69 -80 -4 0 -25 -23 -47 -51 -21 -28 -61 -75 -89 -104 -27 -29 -69 -78
-93 -109 -25 -32 -48 -53 -54 -50 -6 4 -8 2 -4 -4 3 -5 3 -12 -1 -14 -5 -1
-28 -28 -53 -58 -25 -30 -47 -57 -50 -60 -3 -3 -53 -59 -110 -125 -58 -66
-122 -137 -142 -157 -21 -21 -38 -42 -38 -46 0 -5 -34 -44 -75 -88 -41 -43
-75 -83 -75 -88 0 -5 -34 -43 -75 -84 -41 -41 -75 -80 -75 -85 0 -6 -33 -45
-72 -88 -136 -145 -193 -211 -218 -249 -14 -22 -30 -39 -37 -40 -7 0 -17 -9
-23 -19 -5 -11 -22 -32 -37 -48 -16 -15 -47 -51 -70 -78 -23 -28 -56 -66 -73
-85 -18 -19 -55 -63 -82 -97 -27 -35 -53 -63 -56 -63 -4 0 -16 -14 -27 -30
-11 -16 -25 -30 -31 -30 -6 0 -16 -11 -22 -25 -16 -34 -113 -135 -124 -129 -5
3 -7 2 -6 -3 4 -11 -54 -92 -92 -130 l-33 -32 -31 22 c-17 12 -43 33 -58 47
-50 46 -77 70 -150 130 -40 33 -87 74 -104 90 -16 17 -33 30 -37 30 -9 0 -15
5 -77 60 -25 22 -52 40 -61 40 -9 0 -22 7 -30 16 -7 8 -26 22 -43 31 -17 8
-42 25 -56 38 -37 32 -169 105 -205 112 -16 4 -48 14 -70 23 -22 10 -85 28
-140 41 -89 21 -123 24 -305 24 -214 0 -245 -4 -520 -61 -153 -32 -252 -61
-436 -130 -154 -57 -231 -93 -314 -148 -30 -20 -63 -39 -73 -42 -10 -3 -59
-33 -109 -67 -49 -34 -102 -69 -117 -77 -38 -22 -94 -61 -112 -79 -8 -9 -41
-34 -72 -55 -31 -22 -57 -44 -57 -49 0 -5 -11 -18 -24 -28 -25 -20 -80 -122
-81 -149 -1 -47 25 -112 56 -137 34 -29 102 -63 125 -63 8 0 14 -5 14 -11 0
-5 4 -8 8 -5 5 3 23 -4 40 -15 18 -10 40 -19 49 -19 21 0 93 -32 93 -41 0 -4
26 -22 58 -39 31 -18 66 -40 77 -50 20 -18 49 -26 119 -35 21 -2 46 -13 55
-23 9 -11 54 -44 101 -75 47 -31 92 -64 101 -72 9 -8 18 -15 21 -15 6 0 42
-29 96 -77 14 -13 29 -23 34 -23 10 0 64 -39 104 -75 48 -42 92 -75 101 -75 5
0 27 -18 49 -40 21 -22 44 -40 49 -40 6 0 27 -15 46 -33 20 -19 54 -44 77 -57
23 -13 39 -26 37 -30 -2 -4 13 -16 35 -26 22 -10 40 -24 40 -30 0 -7 8 -15 18
-19 15 -6 15 -8 2 -18 -9 -7 -25 -26 -37 -43 -12 -16 -42 -52 -68 -80 -25 -27
-60 -69 -78 -94 -17 -24 -51 -65 -75 -90 -25 -25 -55 -61 -67 -80 -12 -19 -50
-64 -84 -99 -33 -35 -61 -70 -61 -77 0 -7 -10 -21 -22 -31 -24 -19 -116 -128
-133 -158 -9 -15 -30 4 -150 130 -195 205 -748 761 -762 766 -6 2 -47 37 -90
77 -114 106 -240 210 -277 227 -19 9 -43 25 -54 35 -11 11 -95 69 -186 130
-150 100 -185 130 -156 130 5 0 22 19 38 43 17 23 55 67 86 97 31 30 56 59 56
64 0 8 55 83 76 101 19 18 74 93 74 101 0 5 12 23 26 39 29 33 124 171 124
179 0 3 29 50 63 103 35 54 88 145 117 203 29 58 60 116 69 130 10 14 25 45
35 70 32 78 43 103 83 190 39 84 59 133 103 260 86 247 130 383 130 403 0 13
7 46 16 73 43 135 133 551 134 619 0 28 5 68 10 90 16 72 59 476 70 655 5 96
10 266 10 377 l0 202 58 6 c31 3 84 15 117 26 98 34 117 34 164 5 49 -31 199
-74 291 -82 53 -5 89 -1 192 25 70 17 145 41 165 54 21 13 47 27 58 31 11 3
61 46 111 95 65 65 101 109 129 163 50 95 85 230 85 331 0 97 -40 263 -79 328
-16 25 -31 54 -35 66 -4 11 -33 47 -65 79 l-59 59 14 85 c22 145 15 281 -27
495 -15 77 -52 169 -97 242 -19 32 -43 73 -53 91 -10 18 -48 65 -86 104 -92
95 -106 108 -114 108 -4 0 -34 16 -66 35 -115 68 -320 116 -437 101 -73 -10
-196 -36 -215 -46 -9 -4 -38 -16 -66 -25 -27 -10 -64 -26 -81 -36 -43 -26 -50
-24 -63 13 -15 44 -57 95 -90 113 -21 10 -30 24 -35 52 -8 42 -29 138 -76 338
-16 72 -30 142 -30 156 0 13 -28 132 -61 264 -34 132 -72 289 -85 350 -13 60
-35 148 -48 195 -29 98 -91 330 -129 475 -24 94 -48 176 -98 340 -11 39 -25
90 -29 115 -5 25 -38 140 -76 255 -37 116 -70 228 -74 250 -5 22 -13 56 -19
75 -14 45 -14 50 3 50 8 0 17 -9 21 -19 3 -11 33 -42 66 -68 33 -26 70 -57 82
-68 13 -11 45 -31 72 -44 28 -13 59 -28 69 -34 102 -50 332 -137 364 -137 48
0 272 -91 315 -128 9 -8 27 -20 39 -26 11 -6 26 -20 32 -31 6 -11 41 -53 78
-92 37 -40 70 -85 74 -100 4 -16 35 -85 70 -154 61 -122 70 -147 94 -274 47
-245 168 -447 364 -603 39 -31 80 -65 90 -74 11 -10 23 -18 28 -18 7 0 28 -13
177 -112 31 -21 59 -38 63 -38 4 0 63 -34 131 -75 68 -41 129 -75 135 -75 13
0 142 -71 221 -122 25 -15 51 -28 58 -28 13 0 61 -27 73 -40 3 -3 37 -26 75
-49 39 -24 72 -48 73 -53 2 -4 9 -8 14 -8 13 0 96 -52 158 -99 25 -19 59 -40
75 -47 17 -7 41 -22 55 -33 106 -89 151 -133 185 -180 22 -29 51 -65 64 -80
14 -14 39 -53 57 -86 17 -33 54 -103 83 -155 28 -52 56 -113 61 -135 29 -129
200 -114 262 22 18 41 18 55 8 255 -20 407 -39 553 -91 717 -29 93 -107 271
-119 271 -3 0 -18 26 -34 58 -51 102 -113 204 -146 242 -11 13 -28 39 -36 57
-9 17 -44 62 -80 100 -35 37 -64 72 -64 77 0 20 -455 471 -520 516 -19 13 -60
46 -90 73 -30 27 -72 61 -94 75 -22 14 -47 33 -56 42 -8 10 -60 51 -115 93
-55 41 -118 94 -140 116 l-40 42 3 277 c3 257 2 284 -18 362 -22 89 -62 176
-113 248 -36 50 -191 172 -219 172 -10 0 -41 12 -69 26 -62 31 -335 124 -366
124 -12 0 -75 14 -140 31 -193 50 -491 109 -598 120 -55 5 -130 12 -167 16
-38 3 -68 8 -68 11 0 3 14 48 31 101 37 112 50 275 30 358 -12 49 -49 113 -65
113 -4 0 -24 14 -43 30 -18 17 -38 30 -43 30 -14 0 -28 60 -36 155 -3 50 -19
142 -35 205 -16 63 -29 122 -29 130 0 32 -55 155 -101 225 -27 42 -49 80 -49
84 0 5 -13 24 -29 43 -16 18 -56 67 -90 109 -89 113 -498 489 -530 489 -6 0
-38 19 -73 43 -60 42 -466 247 -518 262 -24 8 -188 86 -262 125 -20 11 -44 20
-53 20 -8 0 -39 11 -68 25 -93 46 -285 125 -301 125 -9 0 -24 5 -34 10 -34 20
-362 140 -381 140 -11 0 -54 11 -94 25 -139 46 -392 116 -457 125 -36 5 -108
19 -160 30 -272 60 -565 106 -758 120 -75 5 -211 16 -302 24 -91 8 -215 18
-277 22 l-111 6 -22 62 c-83 228 -175 316 -410 394 -126 42 -382 67 -570 56z
m-155 -2884 c64 -10 210 -62 313 -110 70 -34 66 -27 135 -215 74 -199 91 -287
91 -455 -1 -126 -4 -157 -27 -235 -14 -49 -40 -118 -56 -152 -17 -34 -33 -73
-37 -87 -7 -28 -25 -32 -219 -41 -305 -15 -1036 -77 -1779 -151 l-159 -16 -54
58 c-30 33 -60 71 -68 86 -8 15 -21 31 -28 35 -15 9 -117 152 -117 164 0 4
-18 46 -40 93 -63 133 -84 237 -75 371 4 61 6 134 5 162 -1 52 0 53 67 119 37
37 91 81 118 99 66 43 288 137 395 168 89 26 121 32 389 72 302 45 962 65
1146 35z m2964 -50 c12 -55 29 -205 33 -288 l3 -53 -290 3 -290 3 -23 85 c-12
47 -28 112 -36 145 -7 33 -21 77 -30 99 -9 21 -16 40 -16 42 0 2 87 5 193 7
105 1 249 3 319 5 l126 2 11 -50z m760 34 c10 -9 71 -360 71 -412 0 -11 -10
-13 -47 -8 -27 3 -127 11 -223 17 -96 5 -177 15 -181 20 -3 6 -9 63 -12 128
-6 104 -12 150 -33 249 l-5 23 213 -7 c117 -4 215 -8 217 -10z m-1745 -65 c41
-90 72 -187 80 -250 l7 -56 -251 -6 c-139 -4 -255 -5 -260 -2 -4 3 -11 26 -15
52 -8 59 -51 221 -71 268 l-14 35 87 1 c95 2 395 14 403 17 3 1 18 -26 34 -59z
m2396 20 c85 -11 206 -32 269 -46 l113 -25 -6 -47 c-3 -25 -13 -113 -21 -195
-8 -82 -17 -151 -20 -154 -3 -3 -110 7 -238 21 -127 15 -250 27 -272 27 -22 0
-45 4 -51 8 -6 4 -14 45 -18 91 -7 74 -33 240 -52 325 l-7 29 74 -7 c41 -3
144 -16 229 -27z m-3237 -51 c26 -96 67 -273 67 -290 0 -10 -8 -18 -17 -18
-10 0 -90 -7 -178 -15 -88 -8 -163 -11 -166 -7 -3 4 -16 41 -29 82 -12 41 -40
119 -62 174 -21 54 -37 100 -35 102 4 4 253 20 344 23 l62 1 14 -52z m4084
-158 c43 -18 107 -47 143 -65 36 -18 91 -40 123 -49 66 -19 66 -19 37 -127
-11 -41 -20 -86 -20 -100 0 -14 -2 -28 -5 -31 -3 -3 -65 5 -138 19 -73 13
-170 29 -217 36 l-85 13 1 119 c0 66 4 145 8 176 l7 57 34 -8 c19 -4 69 -22
112 -40z m-7663 -86 c-10 -24 -14 -60 -13 -103 2 -36 2 -112 1 -167 l-2 -102
-77 -7 c-43 -4 -141 -15 -218 -25 -77 -10 -143 -15 -148 -11 -4 4 -6 97 -5
207 l3 199 200 21 c110 12 217 22 237 23 l37 1 -15 -36z m-798 -211 c0 -93 4
-189 8 -215 l7 -48 -52 0 c-29 0 -136 -14 -238 -31 -143 -23 -186 -27 -192
-18 -14 23 -30 172 -32 294 l-2 119 41 8 c61 13 384 56 424 57 l35 1 1 -167z
m-817 -302 c18 -87 18 -85 -54 -99 -35 -6 -77 -12 -93 -12 -15 0 -68 -9 -118
-20 -49 -11 -101 -23 -115 -26 -24 -5 -27 -3 -32 33 -3 21 -11 118 -18 216
-10 150 -9 181 2 191 17 15 163 44 297 57 53 6 99 13 102 15 3 3 8 -63 12
-148 3 -84 11 -177 17 -207z m-769 127 c1 -88 12 -243 26 -334 l6 -41 -69 -11
c-37 -6 -96 -19 -130 -29 -34 -9 -64 -15 -66 -13 -3 3 -12 106 -21 229 -13
181 -14 226 -4 233 7 4 38 12 68 19 30 6 80 17 110 24 30 7 61 13 68 14 9 1
12 -24 12 -91z m6949 -212 c-2 -129 -8 -238 -12 -243 -9 -8 -554 -29 -563 -21
-2 3 3 40 11 84 9 43 19 150 22 237 l6 157 56 1 c82 2 432 15 460 17 l23 2 -3
-234z m739 224 l142 0 -1 -82 c-1 -98 -22 -354 -30 -362 -3 -3 -122 -9 -265
-12 l-260 -7 7 74 c4 41 8 148 8 238 l1 164 128 -6 c70 -4 191 -7 270 -7z
m697 -35 c110 -8 212 -15 228 -15 l27 0 -6 -72 c-6 -83 -33 -284 -40 -310 -5
-16 -25 -18 -231 -18 l-225 0 6 43 c10 72 26 269 26 330 0 31 3 57 8 57 4 0
97 -7 207 -15z m-2305 -12 c-1 -96 -38 -396 -55 -454 -4 -13 -38 -17 -208 -26
-111 -5 -204 -8 -206 -7 -2 2 11 48 28 101 24 70 37 136 46 232 9 81 19 137
26 142 7 4 64 10 128 14 64 3 121 8 126 10 6 2 34 4 63 4 43 1 52 -2 52 -16z
m3091 -52 c216 -14 319 -30 319 -50 0 -9 -12 -68 -26 -131 -14 -63 -28 -136
-31 -162 -4 -35 -10 -48 -22 -48 -23 0 -345 20 -419 26 -63 6 -64 6 -57 32 14
56 35 209 35 264 0 73 7 89 34 83 11 -3 87 -9 167 -14z m754 -96 c28 -4 83
-13 122 -21 40 -8 76 -14 80 -13 19 3 59 -2 70 -9 14 -9 -20 -117 -71 -220
-20 -40 -36 -78 -36 -84 0 -13 -309 -2 -324 12 -4 4 3 57 17 117 14 59 31 136
38 171 11 57 14 63 33 58 12 -2 44 -8 71 -11z m-7472 -192 c14 -32 37 -80 49
-108 28 -60 105 -179 140 -218 36 -39 42 -66 15 -72 -28 -5 -181 -25 -227 -29
-19 -1 -92 -11 -161 -21 -69 -10 -132 -16 -140 -13 -16 6 -37 66 -98 279 -59
207 -77 179 139 210 269 38 250 40 283 -28z m-777 -169 c19 -71 48 -165 64
-209 16 -44 30 -93 32 -109 l3 -30 -155 -27 c-85 -15 -187 -34 -226 -42 l-71
-13 -23 70 c-13 39 -31 100 -41 136 -9 36 -31 114 -47 173 -21 75 -27 109 -19
112 7 2 77 13 157 25 80 12 177 27 215 34 39 6 71 11 73 10 1 -1 18 -59 38
-130z m-811 -41 c7 -58 34 -157 86 -321 21 -68 39 -125 39 -127 0 -3 -7 -5
-17 -5 -9 0 -94 -18 -189 -40 -95 -22 -180 -40 -188 -40 -9 0 -20 16 -27 43
-6 23 -17 56 -24 72 -26 57 -115 336 -115 358 0 21 12 25 198 64 108 23 205
42 214 42 13 1 18 -10 23 -46z m-752 -163 c16 -86 49 -195 98 -318 27 -68 47
-128 44 -132 -3 -4 -21 -11 -40 -14 -20 -4 -77 -20 -128 -36 -158 -51 -150
-52 -177 22 -12 35 -28 77 -35 93 -23 53 -54 208 -57 285 l-3 75 125 37 c69
20 134 36 145 35 15 -2 22 -12 28 -47z m5990 -162 c3 -18 11 -82 17 -143 18
-180 30 -263 56 -395 48 -239 144 -501 224 -611 16 -23 30 -47 30 -54 0 -11
100 -125 175 -200 52 -52 184 -160 208 -170 13 -5 48 -26 78 -46 84 -56 176
-109 188 -109 6 0 46 -17 89 -39 42 -21 95 -44 117 -51 22 -7 45 -16 50 -20
15 -11 77 -30 131 -40 27 -4 117 -22 199 -38 279 -56 678 -86 925 -72 237 14
372 34 619 91 25 6 67 14 95 20 56 10 233 63 281 84 17 7 54 20 82 30 29 9 55
21 58 26 4 5 17 9 30 9 13 0 56 18 97 40 40 23 96 52 125 65 28 13 54 29 58
34 3 6 13 11 20 11 16 0 111 56 135 79 26 26 94 51 101 38 6 -11 19 -70 47
-212 6 -27 19 -84 30 -125 85 -319 112 -427 112 -449 0 -14 7 -51 15 -81 40
-145 135 -576 135 -610 0 -29 -1 -30 -47 -30 -42 0 -182 -34 -358 -86 -27 -8
-77 -18 -110 -23 -33 -5 -133 -25 -223 -45 -260 -58 -471 -97 -558 -103 l-81
-6 -21 35 c-23 37 -105 118 -120 118 -5 0 -44 33 -88 73 -43 40 -95 84 -114
99 -19 14 -57 47 -85 72 -27 25 -59 49 -70 52 -11 4 -45 25 -76 48 -66 48
-139 93 -191 117 -20 10 -60 32 -90 51 -58 37 -132 74 -218 108 -30 12 -68 28
-85 35 -223 98 -330 135 -395 135 -30 0 -116 -7 -190 -16 -74 -8 -182 -19
-240 -24 -123 -10 -301 -45 -525 -102 -88 -22 -183 -44 -211 -49 -27 -5 -131
-36 -230 -70 -98 -33 -197 -66 -219 -71 -22 -6 -94 -30 -160 -54 l-120 -43
-320 39 c-176 22 -378 44 -450 50 -119 9 -305 31 -980 119 -132 18 -280 36
-330 42 -49 6 -245 35 -435 66 -190 30 -383 60 -430 65 -77 9 -384 60 -570 94
-41 7 -115 20 -165 29 -122 21 -124 22 -94 43 22 15 119 103 174 157 59 60
160 178 172 203 7 15 32 50 55 78 71 84 164 308 194 461 36 192 8 506 -77 858
-16 66 -29 127 -29 136 0 16 10 18 435 64 83 9 224 25 315 36 270 32 734 77
895 88 83 6 281 20 440 31 514 36 1289 83 1451 89 40 1 42 -1 47 -31z m5740
-3405 c21 -15 52 -45 69 -67 17 -23 37 -46 43 -51 7 -6 28 -48 48 -95 40 -94
67 -228 67 -335 l0 -70 -82 0 c-96 -1 -269 -43 -327 -79 -20 -13 -46 -26 -58
-30 -29 -9 -210 -190 -219 -219 -4 -12 -17 -39 -30 -59 -13 -20 -32 -70 -42
-110 -18 -69 -20 -71 -25 -38 -6 36 -30 262 -48 435 -5 55 -21 188 -36 295
-40 298 -40 277 -6 292 15 7 30 15 33 19 12 15 189 107 235 122 73 24 98 26
225 21 104 -5 119 -8 153 -31z m-11528 -861 c44 -10 86 -21 94 -26 11 -7 12
-28 7 -100 -19 -251 -119 -1032 -134 -1048 -19 -19 -272 43 -349 86 -16 8 -44
22 -63 30 -19 7 -70 46 -112 85 -70 66 -78 77 -99 143 -19 63 -21 86 -16 192
5 112 24 232 46 288 42 111 240 321 321 341 14 3 41 10 60 15 55 15 158 13
245 -6z m11838 -137 c90 -46 106 -62 153 -155 37 -72 39 -79 39 -170 0 -91 -2
-98 -39 -170 -48 -93 -63 -109 -156 -156 -71 -37 -80 -39 -165 -39 -82 0 -97
3 -160 34 -92 44 -128 80 -173 171 -34 69 -37 82 -37 160 0 78 3 91 37 161 43
85 71 116 143 155 83 45 123 54 208 50 65 -3 89 -10 150 -41z m-9682 -3797
c58 -20 144 -84 205 -154 33 -37 78 -87 102 -111 23 -23 42 -47 42 -52 0 -5 7
-14 15 -21 8 -7 15 -20 15 -30 0 -10 16 -38 36 -62 20 -23 45 -61 55 -83 73
-163 103 -232 110 -259 4 -17 17 -56 28 -86 54 -140 62 -284 23 -373 -21 -47
-83 -107 -110 -107 -10 0 -22 -4 -28 -10 -5 -5 -30 -13 -55 -16 -55 -8 -127
22 -157 63 -11 16 -35 69 -54 119 -24 65 -43 99 -64 118 -30 24 -38 26 -164
28 l-132 3 -25 70 c-14 39 -29 75 -34 80 -4 6 -24 49 -44 95 -20 47 -56 120
-81 162 -45 80 -54 108 -31 108 7 0 32 16 54 35 33 28 42 44 51 87 9 47 7 57
-15 107 -37 79 -39 118 -13 174 22 46 76 94 132 117 33 13 99 12 139 -2z
m10339 -152 c97 -18 197 -52 235 -80 17 -12 58 -39 92 -59 34 -21 63 -41 65
-46 2 -5 17 -17 34 -27 17 -11 53 -38 80 -61 27 -24 75 -63 107 -88 31 -26 57
-50 57 -56 0 -5 11 -14 24 -19 24 -9 39 -21 111 -88 22 -20 61 -53 86 -72 45
-34 151 -126 211 -182 16 -16 32 -28 35 -28 3 0 17 -12 32 -27 15 -16 42 -39
61 -53 18 -14 43 -35 56 -46 12 -12 81 -65 153 -119 71 -54 132 -104 135 -111
3 -7 20 -20 39 -29 19 -9 63 -44 98 -78 35 -34 76 -68 91 -76 32 -16 68 -48
68 -60 0 -4 23 -25 51 -47 54 -41 134 -112 178 -155 15 -14 36 -29 49 -33 12
-4 22 -13 22 -20 0 -6 26 -33 58 -60 103 -86 231 -207 457 -431 240 -239 372
-386 382 -425 3 -14 23 -54 44 -90 163 -282 273 -760 239 -1045 -15 -128 -25
-167 -50 -190 -11 -10 -20 -26 -20 -36 0 -9 -11 -27 -25 -40 -13 -13 -25 -30
-25 -38 0 -8 -13 -36 -30 -63 -16 -26 -30 -55 -30 -63 0 -8 -4 -15 -10 -15 -5
0 -10 -4 -10 -9 0 -6 -11 -22 -24 -36 -13 -14 -32 -43 -41 -63 -18 -39 -112
-189 -132 -209 -22 -24 -50 -13 -87 31 -20 24 -36 49 -36 54 0 12 -64 94 -118
151 -24 25 -56 62 -70 81 -23 30 -54 69 -94 119 -40 50 -78 102 -78 110 0 5
-13 22 -29 37 -27 27 -52 56 -154 179 -121 145 -303 327 -528 529 -84 76 -166
151 -180 167 -14 16 -30 29 -35 29 -5 0 -48 36 -97 80 -48 44 -91 80 -95 80
-4 0 -40 32 -81 70 -40 39 -79 70 -86 70 -7 0 -26 15 -42 33 -38 42 -129 117
-142 117 -5 0 -16 8 -23 19 -7 10 -78 72 -158 137 -80 65 -149 123 -155 129
-5 6 -21 18 -35 27 -14 9 -55 43 -92 77 -36 33 -70 61 -75 62 -4 0 -27 15 -49
32 -23 18 -70 53 -105 79 -35 26 -72 54 -81 62 -10 9 -66 53 -125 100 -60 46
-129 105 -156 130 -26 25 -50 46 -53 46 -3 0 -37 26 -75 58 -39 31 -94 71
-123 87 -29 17 -80 58 -112 93 -32 34 -64 62 -71 62 -7 0 -37 22 -66 48 -29
27 -76 64 -103 82 -27 19 -60 44 -74 56 -60 53 -117 95 -146 109 -17 8 -58 37
-90 65 -33 27 -63 50 -67 50 -4 0 -17 9 -29 20 -12 11 -30 20 -39 20 -10 0
-22 6 -26 14 -4 8 -39 33 -77 56 -38 23 -78 51 -89 61 -12 10 -28 19 -36 19
-9 0 -41 19 -71 42 -65 49 -135 82 -158 73 -18 -7 -102 34 -102 50 0 17 124
124 177 152 147 79 254 133 262 133 6 0 76 32 157 71 81 38 161 73 178 76 17
4 73 26 124 50 86 40 228 74 397 96 73 10 297 5 365 -7z m-2998 -1378 c34 -23
72 -52 85 -64 13 -12 38 -29 56 -37 18 -9 50 -31 71 -49 36 -32 38 -35 26 -58
-8 -14 -16 -41 -19 -60 -6 -30 -24 -48 -151 -147 -79 -63 -147 -117 -150 -121
-3 -4 -23 -19 -45 -33 -22 -15 -65 -50 -95 -78 -30 -29 -69 -59 -86 -67 -18
-8 -47 -30 -65 -48 -19 -18 -59 -50 -89 -70 -30 -20 -65 -45 -78 -56 -13 -11
-50 -38 -83 -61 -32 -23 -59 -46 -59 -50 0 -5 -6 -9 -13 -9 -13 0 -115 -65
-132 -84 -14 -16 -93 -66 -103 -66 -5 0 -22 -10 -38 -22 -47 -38 -156 -107
-201 -128 -24 -10 -66 -34 -95 -53 -60 -38 -470 -242 -508 -253 -14 -4 -47
-17 -75 -30 -124 -57 -243 -106 -280 -114 -22 -4 -76 -22 -120 -40 -123 -48
-275 -100 -325 -110 -25 -5 -119 -29 -210 -55 -180 -50 -378 -95 -424 -95
l-29 0 6 78 c6 90 40 204 72 247 12 17 41 66 63 110 41 81 104 165 125 165 6
0 20 8 31 19 34 30 217 120 266 130 25 5 79 23 120 39 41 17 100 40 130 52 30
12 74 30 97 41 23 10 48 19 55 19 8 0 74 27 148 61 74 33 160 69 190 79 65 22
117 44 222 94 42 20 79 36 83 36 4 0 21 6 38 14 18 7 51 19 74 25 23 6 100 41
170 76 70 36 132 65 139 65 6 0 34 15 61 34 27 19 76 48 109 65 32 17 66 35
74 40 8 4 32 16 52 26 20 9 63 37 95 61 32 24 73 51 92 61 19 10 42 25 51 33
28 26 152 114 192 137 21 12 49 30 62 40 90 70 136 103 145 103 5 0 27 15 48
34 78 70 138 116 150 116 7 0 41 -19 75 -42z m-8140 -639 c67 -34 147 -68 177
-75 30 -8 60 -18 65 -23 6 -5 29 -14 51 -21 22 -7 76 -28 120 -47 44 -19 114
-46 155 -60 41 -14 134 -52 205 -84 72 -33 134 -59 138 -59 4 0 36 -13 71 -29
88 -42 255 -108 291 -116 51 -12 308 -95 345 -112 19 -9 85 -29 145 -43 61
-15 157 -41 215 -58 147 -42 244 -63 470 -101 123 -20 264 -52 420 -95 91 -25
175 -46 187 -46 32 0 177 -64 204 -90 13 -12 42 -34 64 -50 22 -15 65 -56 95
-91 30 -35 68 -75 83 -88 16 -13 44 -47 63 -75 18 -28 47 -69 64 -90 38 -49
38 -66 3 -66 -101 0 -526 46 -733 80 -63 10 -140 21 -170 25 -30 3 -71 10 -90
15 -19 5 -82 21 -140 35 -58 15 -158 42 -222 61 -65 19 -126 34 -136 34 -10 0
-110 32 -223 70 -112 39 -219 75 -237 79 -18 5 -47 20 -65 33 -17 13 -61 42
-97 63 -36 21 -66 43 -68 47 -2 4 -11 8 -20 8 -9 0 -61 28 -116 63 -56 35
-132 80 -171 99 -38 20 -108 59 -154 87 -46 28 -88 51 -93 51 -4 0 -68 34
-141 75 -74 41 -138 75 -144 75 -5 0 -75 34 -155 75 -80 41 -152 75 -161 75
-8 0 -37 11 -64 24 -120 59 -223 105 -283 126 -81 28 -132 54 -150 75 -8 9
-31 25 -52 36 -21 11 -38 20 -38 22 1 13 139 147 153 147 9 0 72 -27 139 -61z
m10998 -4 c30 -24 78 -60 105 -79 28 -19 75 -58 105 -85 30 -28 60 -51 66 -51
6 0 44 -29 85 -65 41 -35 88 -72 106 -80 18 -9 36 -21 40 -29 4 -7 39 -36 77
-66 38 -29 79 -61 90 -71 12 -9 50 -41 85 -70 35 -30 72 -59 84 -66 11 -6 52
-40 91 -75 39 -35 88 -74 108 -87 21 -12 46 -32 55 -45 10 -12 43 -41 73 -65
30 -24 87 -72 126 -108 l72 -65 -52 -55 c-28 -30 -73 -79 -101 -108 -27 -29
-61 -67 -75 -84 -14 -17 -51 -58 -82 -90 -32 -33 -58 -61 -58 -64 0 -5 -76
-91 -152 -171 -32 -33 -58 -66 -58 -72 0 -6 -12 -24 -26 -40 -15 -16 -47 -51
-72 -79 -24 -27 -76 -84 -116 -127 -95 -101 -199 -216 -229 -252 l-24 -30 -28
85 c-15 46 -37 102 -48 124 -25 50 -106 170 -141 210 -15 17 -35 46 -46 65
-10 19 -48 71 -84 114 -36 44 -66 85 -66 92 0 7 -6 17 -13 21 -7 4 -66 73
-132 153 -65 80 -127 151 -137 158 -10 7 -18 19 -18 25 0 7 -34 48 -75 92 -41
44 -75 85 -75 90 0 6 -30 42 -66 80 -36 39 -77 87 -90 107 -13 20 -32 42 -42
47 -11 6 -27 22 -36 37 -17 25 -17 27 3 48 12 12 21 27 21 32 0 5 14 18 30 27
17 10 30 25 30 32 0 14 45 68 123 146 20 20 37 42 37 47 0 5 24 33 54 63 29
30 71 76 91 104 21 27 52 63 69 81 49 49 76 81 76 90 0 5 27 36 60 69 33 32
60 62 60 66 0 4 7 15 16 23 18 19 25 15 104 -49z m-6365 -836 c-13 -24 -25
-53 -25 -64 0 -11 -8 -36 -19 -55 -10 -20 -33 -80 -51 -135 -31 -94 -33 -111
-38 -275 -4 -151 -7 -179 -23 -202 -11 -14 -19 -30 -19 -35 0 -6 -23 -48 -51
-94 -29 -46 -64 -110 -79 -142 l-28 -58 -48 78 c-26 43 -56 88 -65 101 -9 12
-20 50 -24 84 -6 51 -12 65 -37 86 -16 14 -42 50 -58 81 -53 100 -81 145 -134
211 -29 36 -61 79 -71 95 -11 17 -28 39 -40 51 -11 11 -47 49 -81 85 -33 35
-88 90 -122 122 -34 32 -62 60 -62 63 0 2 96 4 213 4 215 0 754 25 837 39 25
4 46 6 48 5 1 0 -9 -21 -23 -45z"/>
<path d="M23717 12379 c-91 -23 -168 -69 -248 -148 -145 -146 -196 -343 -144
-565 22 -95 53 -151 131 -240 56 -62 81 -82 148 -115 111 -54 175 -71 271 -71
108 0 180 14 254 50 34 17 65 30 70 30 12 0 181 169 181 181 0 5 13 36 30 70
33 69 60 183 60 256 0 106 -74 303 -138 370 -106 110 -179 155 -292 183 -105
25 -218 24 -323 -1z m81 -484 c64 -54 66 -127 5 -188 -66 -67 -151 -56 -186
23 -22 51 -21 61 3 115 34 75 120 99 178 50z"/>
<path d="M12570 19044 c-30 -8 -73 -19 -94 -25 -54 -14 -95 -38 -125 -74 -14
-16 -49 -55 -78 -86 -29 -31 -53 -59 -53 -63 0 -4 -22 -40 -49 -79 -90 -130
-207 -433 -240 -617 -50 -289 -65 -451 -58 -658 9 -311 66 -562 162 -725 19
-32 35 -64 35 -71 0 -15 164 -207 188 -220 9 -5 42 -28 72 -51 73 -56 123 -80
238 -117 82 -26 117 -31 227 -35 117 -4 140 -2 225 22 52 14 111 29 131 34 21
4 63 23 95 41 190 107 324 227 446 401 23 33 103 189 139 273 29 68 34 91 65
276 19 115 13 386 -11 495 -8 38 -15 81 -15 95 0 41 -93 307 -130 372 -6 10
-16 35 -23 56 -8 21 -52 97 -99 168 -84 127 -195 252 -288 326 -111 87 -291
181 -471 244 -87 31 -214 39 -289 18z m168 -444 c85 -11 205 -57 280 -106 58
-38 161 -136 209 -199 42 -55 135 -219 161 -285 36 -88 79 -248 97 -359 40
-236 -9 -496 -129 -680 -141 -218 -370 -354 -571 -337 -95 7 -219 68 -284 138
-59 64 -120 154 -127 187 -3 14 -10 37 -15 50 -31 77 -60 229 -71 369 -14 192
0 374 43 575 17 78 34 162 39 187 13 68 64 201 110 281 22 39 40 75 40 81 0 5
21 32 47 59 52 54 53 54 171 39z"/>
<path d="M12616 17635 c-62 -17 -91 -45 -116 -112 -26 -69 -25 -97 4 -160 30
-64 86 -104 155 -111 66 -6 115 12 161 60 70 74 76 168 16 256 -46 67 -130 92
-220 67z"/>
<path d="M14225 15970 c-74 -16 -180 -61 -237 -100 -31 -22 -61 -40 -66 -40
-9 0 -83 -80 -130 -141 -63 -80 -109 -252 -99 -367 14 -146 58 -227 196 -359
57 -54 254 -131 396 -153 125 -20 264 12 360 82 68 51 95 98 95 167 0 88 -37
145 -117 182 -50 23 -137 25 -173 4 -39 -22 -158 -19 -224 5 -62 24 -116 77
-116 116 0 38 24 85 62 125 46 46 121 66 205 53 168 -24 233 5 291 131 21 46
11 126 -21 169 -15 19 -27 39 -27 43 0 13 -71 51 -127 68 -59 19 -214 27 -268
15z"/>
<path d="M15230 13427 c-56 -28 -83 -73 -91 -153 -6 -62 -37 -154 -51 -154 -5
0 -8 -7 -8 -17 0 -20 -73 -116 -104 -137 -13 -8 -38 -28 -56 -45 -36 -33 -139
-91 -181 -104 -37 -10 -86 -68 -99 -117 -13 -49 0 -107 35 -148 35 -41 118
-60 188 -43 55 14 183 81 256 134 85 63 214 201 245 264 10 21 29 58 42 83 85
168 96 302 32 393 -22 31 -94 67 -135 67 -15 0 -48 -10 -73 -23z"/>
<path d="M10714 6080 c-70 -33 -122 -141 -144 -300 -6 -41 -17 -99 -25 -130
-30 -119 -77 -432 -95 -635 -30 -354 -41 -1293 -20 -1795 25 -612 64 -1270
106 -1795 13 -176 29 -396 34 -490 5 -93 16 -240 25 -325 29 -294 55 -535 61
-572 l6 -38 215 0 215 0 -6 38 c-10 60 -44 386 -55 527 -122 1511 -152 2018
-172 2933 -19 851 10 1614 77 2062 35 229 37 379 7 435 -26 49 -48 70 -96 90
-48 20 -83 19 -133 -5z"/>
</g>
</svg>
